solid rpi5_mic_holder
  facet normal 0 0 -1
    outer loop
      vertex 0 0 0
      vertex 85 56 0
      vertex 85 0 0
    endloop
  endfacet
  facet normal 0 0 -1
    outer loop
      vertex 0 0 0
      vertex 0 56 0
      vertex 85 56 0
    endloop
  endfacet
  facet normal 0 0 1
    outer loop
      vertex 0 0 3
      vertex 85 0 3
      vertex 85 56 3
    endloop
  endfacet
  facet normal 0 0 1
    outer loop
      vertex 0 0 3
      vertex 85 56 3
      vertex 0 56 3
    endloop
  endfacet
  facet normal 0 -1 0
    outer loop
      vertex 0 0 0
      vertex 85 0 0
      vertex 85 0 3
    endloop
  endfacet
  facet normal 0 -1 0
    outer loop
      vertex 0 0 0
      vertex 85 0 3
      vertex 0 0 3
    endloop
  endfacet
  facet normal 1 0 0
    outer loop
      vertex 85 0 0
      vertex 85 56 0
      vertex 85 56 3
    endloop
  endfacet
  facet normal 1 0 0
    outer loop
      vertex 85 0 0
      vertex 85 56 3
      vertex 85 0 3
    endloop
  endfacet
  facet normal 0 1 0
    outer loop
      vertex 85 56 0
      vertex 0 56 0
      vertex 0 56 3
    endloop
  endfacet
  facet normal 0 1 0
    outer loop
      vertex 85 56 0
      vertex 0 56 3
      vertex 85 56 3
    endloop
  endfacet
  facet normal -1 0 0
    outer loop
      vertex 0 56 0
      vertex 0 0 0
      vertex 0 0 3
    endloop
  endfacet
  facet normal -1 0 0
    outer loop
      vertex 0 56 0
      vertex 0 0 3
      vertex 0 56 3
    endloop
  endfacet
  facet normal 0 0 -1
    outer loop
      vertex 36.5 22 3
      vertex 48.5 34 3
      vertex 48.5 22 3
    endloop
  endfacet
  facet normal 0 0 -1
    outer loop
      vertex 36.5 22 3
      vertex 36.5 34 3
      vertex 48.5 34 3
    endloop
  endfacet
  facet normal 0 0 1
    outer loop
      vertex 36.5 22 41.5
      vertex 48.5 22 41.5
      vertex 48.5 34 41.5
    endloop
  endfacet
  facet normal 0 0 1
    outer loop
      vertex 36.5 22 41.5
      vertex 48.5 34 41.5
      vertex 36.5 34 41.5
    endloop
  endfacet
  facet normal 0 -1 0
    outer loop
      vertex 36.5 22 3
      vertex 48.5 22 3
      vertex 48.5 22 41.5
    endloop
  endfacet
  facet normal 0 -1 0
    outer loop
      vertex 36.5 22 3
      vertex 48.5 22 41.5
      vertex 36.5 22 41.5
    endloop
  endfacet
  facet normal 1 0 0
    outer loop
      vertex 48.5 22 3
      vertex 48.5 34 3
      vertex 48.5 34 41.5
    endloop
  endfacet
  facet normal 1 0 0
    outer loop
      vertex 48.5 22 3
      vertex 48.5 34 41.5
      vertex 48.5 22 41.5
    endloop
  endfacet
  facet normal 0 1 0
    outer loop
      vertex 48.5 34 3
      vertex 36.5 34 3
      vertex 36.5 34 41.5
    endloop
  endfacet
  facet normal 0 1 0
    outer loop
      vertex 48.5 34 3
      vertex 36.5 34 41.5
      vertex 48.5 34 41.5
    endloop
  endfacet
  facet normal -1 0 0
    outer loop
      vertex 36.5 34 3
      vertex 36.5 22 3
      vertex 36.5 22 41.5
    endloop
  endfacet
  facet normal -1 0 0
    outer loop
      vertex 36.5 34 3
      vertex 36.5 22 41.5
      vertex 36.5 34 41.5
    endloop
  endfacet
  facet normal 0.7933533402912368 0 -0.6087614290087187
    outer loop
      vertex 32.54142223945328 22 61.35623892592501
      vertex 31.85102342424311 22 60.4564936725636
      vertex 31.85102342424311 34 60.4564936725636
    endloop
  endfacet
  facet normal 0.7933533402912368 0 -0.6087614290087187
    outer loop
      vertex 32.54142223945328 22 61.35623892592501
      vertex 31.85102342424311 34 60.4564936725636
      vertex 32.54142223945328 34 61.35623892592501
    endloop
  endfacet
  facet normal -0.7933533402912368 0 0.6087614290087187
    outer loop
      vertex 34.83955556881022 22 59.4278760968654
      vertex 34.30847955711008 34 58.73576436351046
      vertex 34.30847955711008 22 58.73576436351046
    endloop
  endfacet
  facet normal -0.7933533402912368 0 0.6087614290087187
    outer loop
      vertex 34.83955556881022 22 59.4278760968654
      vertex 34.83955556881022 34 59.4278760968654
      vertex 34.30847955711008 34 58.73576436351046
    endloop
  endfacet
  facet normal 0 1 0
    outer loop
      vertex 34.83955556881022 22 59.4278760968654
      vertex 34.30847955711008 22 58.73576436351046
      vertex 31.85102342424311 22 60.4564936725636
    endloop
  endfacet
  facet normal 0 1 0
    outer loop
      vertex 34.83955556881022 22 59.4278760968654
      vertex 31.85102342424311 22 60.4564936725636
      vertex 32.54142223945328 22 61.35623892592501
    endloop
  endfacet
  facet normal 0 -1 0
    outer loop
      vertex 34.83955556881022 34 59.4278760968654
      vertex 31.85102342424311 34 60.4564936725636
      vertex 34.30847955711008 34 58.73576436351046
    endloop
  endfacet
  facet normal 0 -1 0
    outer loop
      vertex 34.83955556881022 34 59.4278760968654
      vertex 32.54142223945328 34 61.35623892592501
      vertex 31.85102342424311 34 60.4564936725636
    endloop
  endfacet
  facet normal 0.8433914458128845 0 -0.5372996083468259
    outer loop
      vertex 31.85102342424311 22 60.4564936725636
      vertex 31.241669750802295 22 59.5
      vertex 31.241669750802295 34 59.5
    endloop
  endfacet
  facet normal 0.8433914458128845 0 -0.5372996083468259
    outer loop
      vertex 31.85102342424311 22 60.4564936725636
      vertex 31.241669750802295 34 59.5
      vertex 31.85102342424311 34 60.4564936725636
    endloop
  endfacet
  facet normal -0.8433914458128845 0 0.5372996083468258
    outer loop
      vertex 34.30847955711008 22 58.73576436351046
      vertex 33.83974596215561 34 58
      vertex 33.83974596215561 22 58
    endloop
  endfacet
  facet normal -0.8433914458128845 0 0.5372996083468258
    outer loop
      vertex 34.30847955711008 22 58.73576436351046
      vertex 34.30847955711008 34 58.73576436351046
      vertex 33.83974596215561 34 58
    endloop
  endfacet
  facet normal 0 1 0
    outer loop
      vertex 34.30847955711008 22 58.73576436351046
      vertex 33.83974596215561 22 58
      vertex 31.241669750802295 22 59.5
    endloop
  endfacet
  facet normal 0 1 0
    outer loop
      vertex 34.30847955711008 22 58.73576436351046
      vertex 31.241669750802295 22 59.5
      vertex 31.85102342424311 22 60.4564936725636
    endloop
  endfacet
  facet normal 0 -1 0
    outer loop
      vertex 34.30847955711008 34 58.73576436351046
      vertex 31.241669750802295 34 59.5
      vertex 33.83974596215561 34 58
    endloop
  endfacet
  facet normal 0 -1 0
    outer loop
      vertex 34.30847955711008 34 58.73576436351046
      vertex 31.85102342424311 34 60.4564936725636
      vertex 31.241669750802295 34 59.5
    endloop
  endfacet
  facet normal 0.8870108331782233 0 -0.4617486132350312
    outer loop
      vertex 31.241669750802295 22 59.5
      vertex 30.71799876852355 22 58.49403740262909
      vertex 30.71799876852355 34 58.49403740262909
    endloop
  endfacet
  facet normal 0.8870108331782233 0 -0.4617486132350312
    outer loop
      vertex 31.241669750802295 22 59.5
      vertex 30.71799876852355 34 58.49403740262909
      vertex 31.241669750802295 34 59.5
    endloop
  endfacet
  facet normal -0.887010833178224 0 0.4617486132350291
    outer loop
      vertex 33.83974596215561 22 58
      vertex 33.4369221296335 34 57.22618261740699
      vertex 33.4369221296335 22 57.22618261740699
    endloop
  endfacet
  facet normal -0.887010833178224 0 0.4617486132350291
    outer loop
      vertex 33.83974596215561 22 58
      vertex 33.83974596215561 34 58
      vertex 33.4369221296335 34 57.22618261740699
    endloop
  endfacet
  facet normal 0 1 0
    outer loop
      vertex 33.83974596215561 22 58
      vertex 33.4369221296335 22 57.22618261740699
      vertex 30.71799876852355 22 58.49403740262909
    endloop
  endfacet
  facet normal 0 1 0
    outer loop
      vertex 33.83974596215561 22 58
      vertex 30.71799876852355 22 58.49403740262909
      vertex 31.241669750802295 22 59.5
    endloop
  endfacet
  facet normal 0 -1 0
    outer loop
      vertex 33.83974596215561 34 58
      vertex 30.71799876852355 34 58.49403740262909
      vertex 33.4369221296335 34 57.22618261740699
    endloop
  endfacet
  facet normal 0 -1 0
    outer loop
      vertex 33.83974596215561 34 58
      vertex 31.241669750802295 34 59.5
      vertex 30.71799876852355 34 58.49403740262909
    endloop
  endfacet
  facet normal 0.9238795325112865 0 -0.3826834323650901
    outer loop
      vertex 30.71799876852355 22 58.49403740262909
      vertex 30.28399592978319 22 57.446261863233694
      vertex 30.28399592978319 34 57.446261863233694
    endloop
  endfacet
  facet normal 0.9238795325112865 0 -0.3826834323650901
    outer loop
      vertex 30.71799876852355 22 58.49403740262909
      vertex 30.28399592978319 34 57.446261863233694
      vertex 30.71799876852355 34 58.49403740262909
    endloop
  endfacet
  facet normal -0.9238795325112868 0 0.3826834323650894
    outer loop
      vertex 33.4369221296335 22 57.22618261740699
      vertex 33.10307379214092 34 56.420201433256686
      vertex 33.10307379214092 22 56.420201433256686
    endloop
  endfacet
  facet normal -0.9238795325112868 0 0.3826834323650894
    outer loop
      vertex 33.4369221296335 22 57.22618261740699
      vertex 33.4369221296335 34 57.22618261740699
      vertex 33.10307379214092 34 56.420201433256686
    endloop
  endfacet
  facet normal 0 1 0
    outer loop
      vertex 33.4369221296335 22 57.22618261740699
      vertex 33.10307379214092 22 56.420201433256686
      vertex 30.28399592978319 22 57.446261863233694
    endloop
  endfacet
  facet normal 0 1 0
    outer loop
      vertex 33.4369221296335 22 57.22618261740699
      vertex 30.28399592978319 22 57.446261863233694
      vertex 30.71799876852355 22 58.49403740262909
    endloop
  endfacet
  facet normal 0 -1 0
    outer loop
      vertex 33.4369221296335 34 57.22618261740699
      vertex 30.28399592978319 34 57.446261863233694
      vertex 33.10307379214092 34 56.420201433256686
    endloop
  endfacet
  facet normal 0 -1 0
    outer loop
      vertex 33.4369221296335 34 57.22618261740699
      vertex 30.71799876852355 34 58.49403740262909
      vertex 30.28399592978319 34 57.446261863233694
    endloop
  endfacet
  facet normal 0.9537169507482269 0 -0.3007057995042729
    outer loop
      vertex 30.28399592978319 22 57.446261863233694
      vertex 29.942964258242114 22 56.36464758633277
      vertex 29.942964258242114 34 56.36464758633277
    endloop
  endfacet
  facet normal 0.9537169507482269 0 -0.3007057995042729
    outer loop
      vertex 30.28399592978319 22 57.446261863233694
      vertex 29.942964258242114 34 56.36464758633277
      vertex 30.28399592978319 34 57.446261863233694
    endloop
  endfacet
  facet normal -0.9537169507482262 0 0.30070579950427573
    outer loop
      vertex 33.10307379214092 22 56.420201433256686
      vertex 32.84074173710932 34 55.58819045102521
      vertex 32.84074173710932 22 55.58819045102521
    endloop
  endfacet
  facet normal -0.9537169507482262 0 0.30070579950427573
    outer loop
      vertex 33.10307379214092 22 56.420201433256686
      vertex 33.10307379214092 34 56.420201433256686
      vertex 32.84074173710932 34 55.58819045102521
    endloop
  endfacet
  facet normal 0 1 0
    outer loop
      vertex 33.10307379214092 22 56.420201433256686
      vertex 32.84074173710932 22 55.58819045102521
      vertex 29.942964258242114 22 56.36464758633277
    endloop
  endfacet
  facet normal 0 1 0
    outer loop
      vertex 33.10307379214092 22 56.420201433256686
      vertex 29.942964258242114 22 56.36464758633277
      vertex 30.28399592978319 22 57.446261863233694
    endloop
  endfacet
  facet normal 0 -1 0
    outer loop
      vertex 33.10307379214092 34 56.420201433256686
      vertex 29.942964258242114 34 56.36464758633277
      vertex 32.84074173710932 34 55.58819045102521
    endloop
  endfacet
  facet normal 0 -1 0
    outer loop
      vertex 33.10307379214092 34 56.420201433256686
      vertex 30.28399592978319 34 57.446261863233694
      vertex 29.942964258242114 34 56.36464758633277
    endloop
  endfacet
  facet normal 0.9762960071199328 0 -0.2164396139381053
    outer loop
      vertex 29.942964258242114 22 56.36464758633277
      vertex 29.697499210841293 22 55.257426309670095
      vertex 29.697499210841293 34 55.257426309670095
    endloop
  endfacet
  facet normal 0.9762960071199328 0 -0.2164396139381053
    outer loop
      vertex 29.942964258242114 22 56.36464758633277
      vertex 29.697499210841293 34 55.257426309670095
      vertex 29.942964258242114 34 56.36464758633277
    endloop
  endfacet
  facet normal -0.9762960071199328 0 0.21643961393810565
    outer loop
      vertex 32.84074173710932 22 55.58819045102521
      vertex 32.65192246987792 34 54.7364817766693
      vertex 32.65192246987792 22 54.7364817766693
    endloop
  endfacet
  facet normal -0.9762960071199328 0 0.21643961393810565
    outer loop
      vertex 32.84074173710932 22 55.58819045102521
      vertex 32.84074173710932 34 55.58819045102521
      vertex 32.65192246987792 34 54.7364817766693
    endloop
  endfacet
  facet normal 0 1 0
    outer loop
      vertex 32.84074173710932 22 55.58819045102521
      vertex 32.65192246987792 22 54.7364817766693
      vertex 29.697499210841293 22 55.257426309670095
    endloop
  endfacet
  facet normal 0 1 0
    outer loop
      vertex 32.84074173710932 22 55.58819045102521
      vertex 29.697499210841293 22 55.257426309670095
      vertex 29.942964258242114 22 56.36464758633277
    endloop
  endfacet
  facet normal 0 -1 0
    outer loop
      vertex 32.84074173710932 34 55.58819045102521
      vertex 29.697499210841293 34 55.257426309670095
      vertex 32.65192246987792 34 54.7364817766693
    endloop
  endfacet
  facet normal 0 -1 0
    outer loop
      vertex 32.84074173710932 34 55.58819045102521
      vertex 29.942964258242114 34 56.36464758633277
      vertex 29.697499210841293 34 55.257426309670095
    endloop
  endfacet
  facet normal 0.9914448613738106 0 -0.1305261922200511
    outer loop
      vertex 29.697499210841293 22 55.257426309670095
      vertex 29.549468924807307 22 54.13302465571956
      vertex 29.549468924807307 34 54.13302465571956
    endloop
  endfacet
  facet normal 0.9914448613738106 0 -0.1305261922200511
    outer loop
      vertex 29.697499210841293 22 55.257426309670095
      vertex 29.549468924807307 34 54.13302465571956
      vertex 29.697499210841293 34 55.257426309670095
    endloop
  endfacet
  facet normal -0.991444861373811 0 0.13052619222004783
    outer loop
      vertex 32.65192246987792 22 54.7364817766693
      vertex 32.53805301908255 34 53.87155742747659
      vertex 32.53805301908255 22 53.87155742747659
    endloop
  endfacet
  facet normal -0.991444861373811 0 0.13052619222004783
    outer loop
      vertex 32.65192246987792 22 54.7364817766693
      vertex 32.65192246987792 34 54.7364817766693
      vertex 32.53805301908255 34 53.87155742747659
    endloop
  endfacet
  facet normal 0 1 0
    outer loop
      vertex 32.65192246987792 22 54.7364817766693
      vertex 32.53805301908255 22 53.87155742747659
      vertex 29.549468924807307 22 54.13302465571956
    endloop
  endfacet
  facet normal 0 1 0
    outer loop
      vertex 32.65192246987792 22 54.7364817766693
      vertex 29.549468924807307 22 54.13302465571956
      vertex 29.697499210841293 22 55.257426309670095
    endloop
  endfacet
  facet normal 0 -1 0
    outer loop
      vertex 32.65192246987792 34 54.7364817766693
      vertex 29.549468924807307 34 54.13302465571956
      vertex 32.53805301908255 34 53.87155742747659
    endloop
  endfacet
  facet normal 0 -1 0
    outer loop
      vertex 32.65192246987792 34 54.7364817766693
      vertex 29.697499210841293 34 55.257426309670095
      vertex 29.549468924807307 34 54.13302465571956
    endloop
  endfacet
  facet normal 0.9990482215818578 0 -0.04361938736533515
    outer loop
      vertex 29.549468924807307 22 54.13302465571956
      vertex 29.5 22 53
      vertex 29.5 34 53
    endloop
  endfacet
  facet normal 0.9990482215818578 0 -0.04361938736533515
    outer loop
      vertex 29.549468924807307 22 54.13302465571956
      vertex 29.5 34 53
      vertex 29.549468924807307 34 54.13302465571956
    endloop
  endfacet
  facet normal -0.9990482215818579 0 0.04361938736533806
    outer loop
      vertex 32.53805301908255 22 53.87155742747659
      vertex 32.5 34 53
      vertex 32.5 22 53
    endloop
  endfacet
  facet normal -0.9990482215818579 0 0.04361938736533806
    outer loop
      vertex 32.53805301908255 22 53.87155742747659
      vertex 32.53805301908255 34 53.87155742747659
      vertex 32.5 34 53
    endloop
  endfacet
  facet normal 0 1 0
    outer loop
      vertex 32.53805301908255 22 53.87155742747659
      vertex 32.5 22 53
      vertex 29.5 22 53
    endloop
  endfacet
  facet normal 0 1 0
    outer loop
      vertex 32.53805301908255 22 53.87155742747659
      vertex 29.5 22 53
      vertex 29.549468924807307 22 54.13302465571956
    endloop
  endfacet
  facet normal 0 -1 0
    outer loop
      vertex 32.53805301908255 34 53.87155742747659
      vertex 29.5 34 53
      vertex 32.5 34 53
    endloop
  endfacet
  facet normal 0 -1 0
    outer loop
      vertex 32.53805301908255 34 53.87155742747659
      vertex 29.549468924807307 34 54.13302465571956
      vertex 29.5 34 53
    endloop
  endfacet
  facet normal 0.9990482215818578 0 0.043619387365335424
    outer loop
      vertex 29.5 22 53
      vertex 29.549468924807307 22 51.86697534428045
      vertex 29.549468924807307 34 51.86697534428045
    endloop
  endfacet
  facet normal 0.9990482215818578 0 0.043619387365335424
    outer loop
      vertex 29.5 22 53
      vertex 29.549468924807307 34 51.86697534428045
      vertex 29.5 34 53
    endloop
  endfacet
  facet normal -0.9990482215818575 0 -0.0436193873653384
    outer loop
      vertex 32.5 22 53
      vertex 32.53805301908255 34 52.12844257252342
      vertex 32.53805301908255 22 52.12844257252342
    endloop
  endfacet
  facet normal -0.9990482215818575 0 -0.0436193873653384
    outer loop
      vertex 32.5 22 53
      vertex 32.5 34 53
      vertex 32.53805301908255 34 52.12844257252342
    endloop
  endfacet
  facet normal 0 1 0
    outer loop
      vertex 32.5 22 53
      vertex 32.53805301908255 22 52.12844257252342
      vertex 29.549468924807307 22 51.86697534428045
    endloop
  endfacet
  facet normal 0 1 0
    outer loop
      vertex 32.5 22 53
      vertex 29.549468924807307 22 51.86697534428045
      vertex 29.5 22 53
    endloop
  endfacet
  facet normal 0 -1 0
    outer loop
      vertex 32.5 34 53
      vertex 29.549468924807307 34 51.86697534428045
      vertex 32.53805301908255 34 52.12844257252342
    endloop
  endfacet
  facet normal 0 -1 0
    outer loop
      vertex 32.5 34 53
      vertex 29.5 34 53
      vertex 29.549468924807307 34 51.86697534428045
    endloop
  endfacet
  facet normal 0.9914448613738107 0 0.1305261922200503
    outer loop
      vertex 29.549468924807307 22 51.86697534428045
      vertex 29.697499210841293 22 50.742573690329905
      vertex 29.697499210841293 34 50.742573690329905
    endloop
  endfacet
  facet normal 0.9914448613738107 0 0.1305261922200503
    outer loop
      vertex 29.549468924807307 22 51.86697534428045
      vertex 29.697499210841293 34 50.742573690329905
      vertex 29.549468924807307 34 51.86697534428045
    endloop
  endfacet
  facet normal -0.9914448613738112 0 -0.13052619222004572
    outer loop
      vertex 32.53805301908255 22 52.12844257252342
      vertex 32.65192246987792 34 51.26351822333069
      vertex 32.65192246987792 22 51.26351822333069
    endloop
  endfacet
  facet normal -0.9914448613738112 0 -0.13052619222004572
    outer loop
      vertex 32.53805301908255 22 52.12844257252342
      vertex 32.53805301908255 34 52.12844257252342
      vertex 32.65192246987792 34 51.26351822333069
    endloop
  endfacet
  facet normal 0 1 0
    outer loop
      vertex 32.53805301908255 22 52.12844257252342
      vertex 32.65192246987792 22 51.26351822333069
      vertex 29.697499210841293 22 50.742573690329905
    endloop
  endfacet
  facet normal 0 1 0
    outer loop
      vertex 32.53805301908255 22 52.12844257252342
      vertex 29.697499210841293 22 50.742573690329905
      vertex 29.549468924807307 22 51.86697534428045
    endloop
  endfacet
  facet normal 0 -1 0
    outer loop
      vertex 32.53805301908255 34 52.12844257252342
      vertex 29.697499210841293 34 50.742573690329905
      vertex 32.65192246987792 34 51.26351822333069
    endloop
  endfacet
  facet normal 0 -1 0
    outer loop
      vertex 32.53805301908255 34 52.12844257252342
      vertex 29.549468924807307 34 51.86697534428045
      vertex 29.697499210841293 34 50.742573690329905
    endloop
  endfacet
  facet normal 0.9762960071199333 0 0.21643961393810365
    outer loop
      vertex 29.697499210841293 22 50.742573690329905
      vertex 29.94296425824211 22 49.635352413667235
      vertex 29.94296425824211 34 49.635352413667235
    endloop
  endfacet
  facet normal 0.9762960071199333 0 0.21643961393810365
    outer loop
      vertex 29.697499210841293 22 50.742573690329905
      vertex 29.94296425824211 34 49.635352413667235
      vertex 29.697499210841293 34 50.742573690329905
    endloop
  endfacet
  facet normal -0.9762960071199336 0 -0.2164396139381013
    outer loop
      vertex 32.65192246987792 22 51.26351822333069
      vertex 32.84074173710931 34 50.411809548974794
      vertex 32.84074173710931 22 50.411809548974794
    endloop
  endfacet
  facet normal -0.9762960071199336 0 -0.2164396139381013
    outer loop
      vertex 32.65192246987792 22 51.26351822333069
      vertex 32.65192246987792 34 51.26351822333069
      vertex 32.84074173710931 34 50.411809548974794
    endloop
  endfacet
  facet normal 0 1 0
    outer loop
      vertex 32.65192246987792 22 51.26351822333069
      vertex 32.84074173710931 22 50.411809548974794
      vertex 29.94296425824211 22 49.635352413667235
    endloop
  endfacet
  facet normal 0 1 0
    outer loop
      vertex 32.65192246987792 22 51.26351822333069
      vertex 29.94296425824211 22 49.635352413667235
      vertex 29.697499210841293 22 50.742573690329905
    endloop
  endfacet
  facet normal 0 -1 0
    outer loop
      vertex 32.65192246987792 34 51.26351822333069
      vertex 29.94296425824211 34 49.635352413667235
      vertex 32.84074173710931 34 50.411809548974794
    endloop
  endfacet
  facet normal 0 -1 0
    outer loop
      vertex 32.65192246987792 34 51.26351822333069
      vertex 29.697499210841293 34 50.742573690329905
      vertex 29.94296425824211 34 49.635352413667235
    endloop
  endfacet
  facet normal 0.9537169507482276 0 0.3007057995042712
    outer loop
      vertex 29.94296425824211 22 49.635352413667235
      vertex 30.283995929783188 22 48.553738136766306
      vertex 30.283995929783188 34 48.553738136766306
    endloop
  endfacet
  facet normal 0.9537169507482276 0 0.3007057995042712
    outer loop
      vertex 29.94296425824211 22 49.635352413667235
      vertex 30.283995929783188 34 48.553738136766306
      vertex 29.94296425824211 34 49.635352413667235
    endloop
  endfacet
  facet normal -0.9537169507482246 0 -0.3007057995042808
    outer loop
      vertex 32.84074173710931 22 50.411809548974794
      vertex 33.10307379214092 34 49.579798566743314
      vertex 33.10307379214092 22 49.579798566743314
    endloop
  endfacet
  facet normal -0.9537169507482246 0 -0.3007057995042808
    outer loop
      vertex 32.84074173710931 22 50.411809548974794
      vertex 32.84074173710931 34 50.411809548974794
      vertex 33.10307379214092 34 49.579798566743314
    endloop
  endfacet
  facet normal 0 1 0
    outer loop
      vertex 32.84074173710931 22 50.411809548974794
      vertex 33.10307379214092 22 49.579798566743314
      vertex 30.283995929783188 22 48.553738136766306
    endloop
  endfacet
  facet normal 0 1 0
    outer loop
      vertex 32.84074173710931 22 50.411809548974794
      vertex 30.283995929783188 22 48.553738136766306
      vertex 29.94296425824211 22 49.635352413667235
    endloop
  endfacet
  facet normal 0 -1 0
    outer loop
      vertex 32.84074173710931 34 50.411809548974794
      vertex 30.283995929783188 34 48.553738136766306
      vertex 33.10307379214092 34 49.579798566743314
    endloop
  endfacet
  facet normal 0 -1 0
    outer loop
      vertex 32.84074173710931 34 50.411809548974794
      vertex 29.94296425824211 34 49.635352413667235
      vertex 30.283995929783188 34 48.553738136766306
    endloop
  endfacet
  facet normal 0.9238795325112856 0 0.3826834323650929
    outer loop
      vertex 30.283995929783188 22 48.553738136766306
      vertex 30.71799876852355 22 47.50596259737091
      vertex 30.71799876852355 34 47.50596259737091
    endloop
  endfacet
  facet normal 0.9238795325112856 0 0.3826834323650929
    outer loop
      vertex 30.283995929783188 22 48.553738136766306
      vertex 30.71799876852355 34 47.50596259737091
      vertex 30.283995929783188 34 48.553738136766306
    endloop
  endfacet
  facet normal -0.9238795325112868 0 -0.3826834323650894
    outer loop
      vertex 33.10307379214092 22 49.579798566743314
      vertex 33.4369221296335 34 48.77381738259301
      vertex 33.4369221296335 22 48.77381738259301
    endloop
  endfacet
  facet normal -0.9238795325112868 0 -0.3826834323650894
    outer loop
      vertex 33.10307379214092 22 49.579798566743314
      vertex 33.10307379214092 34 49.579798566743314
      vertex 33.4369221296335 34 48.77381738259301
    endloop
  endfacet
  facet normal 0 1 0
    outer loop
      vertex 33.10307379214092 22 49.579798566743314
      vertex 33.4369221296335 22 48.77381738259301
      vertex 30.71799876852355 22 47.50596259737091
    endloop
  endfacet
  facet normal 0 1 0
    outer loop
      vertex 33.10307379214092 22 49.579798566743314
      vertex 30.71799876852355 22 47.50596259737091
      vertex 30.283995929783188 22 48.553738136766306
    endloop
  endfacet
  facet normal 0 -1 0
    outer loop
      vertex 33.10307379214092 34 49.579798566743314
      vertex 30.71799876852355 34 47.50596259737091
      vertex 33.4369221296335 34 48.77381738259301
    endloop
  endfacet
  facet normal 0 -1 0
    outer loop
      vertex 33.10307379214092 34 49.579798566743314
      vertex 30.283995929783188 34 48.553738136766306
      vertex 30.71799876852355 34 47.50596259737091
    endloop
  endfacet
  facet normal 0.8870108331782218 0 0.4617486132350336
    outer loop
      vertex 30.71799876852355 22 47.50596259737091
      vertex 31.2416697508023 22 46.5
      vertex 31.2416697508023 34 46.5
    endloop
  endfacet
  facet normal 0.8870108331782218 0 0.4617486132350336
    outer loop
      vertex 30.71799876852355 22 47.50596259737091
      vertex 31.2416697508023 34 46.5
      vertex 30.71799876852355 34 47.50596259737091
    endloop
  endfacet
  facet normal -0.8870108331782207 0 -0.4617486132350355
    outer loop
      vertex 33.4369221296335 22 48.77381738259301
      vertex 33.83974596215562 34 48
      vertex 33.83974596215562 22 48
    endloop
  endfacet
  facet normal -0.8870108331782207 0 -0.4617486132350355
    outer loop
      vertex 33.4369221296335 22 48.77381738259301
      vertex 33.4369221296335 34 48.77381738259301
      vertex 33.83974596215562 34 48
    endloop
  endfacet
  facet normal 0 1 0
    outer loop
      vertex 33.4369221296335 22 48.77381738259301
      vertex 33.83974596215562 22 48
      vertex 31.2416697508023 22 46.5
    endloop
  endfacet
  facet normal 0 1 0
    outer loop
      vertex 33.4369221296335 22 48.77381738259301
      vertex 31.2416697508023 22 46.5
      vertex 30.71799876852355 22 47.50596259737091
    endloop
  endfacet
  facet normal 0 -1 0
    outer loop
      vertex 33.4369221296335 34 48.77381738259301
      vertex 31.2416697508023 34 46.5
      vertex 33.83974596215562 34 48
    endloop
  endfacet
  facet normal 0 -1 0
    outer loop
      vertex 33.4369221296335 34 48.77381738259301
      vertex 30.71799876852355 34 47.50596259737091
      vertex 31.2416697508023 34 46.5
    endloop
  endfacet
  facet normal 0.8433914458128868 0 0.5372996083468219
    outer loop
      vertex 31.2416697508023 22 46.5
      vertex 31.851023424243103 22 45.543506327436404
      vertex 31.851023424243103 34 45.543506327436404
    endloop
  endfacet
  facet normal 0.8433914458128868 0 0.5372996083468219
    outer loop
      vertex 31.2416697508023 22 46.5
      vertex 31.851023424243103 34 45.543506327436404
      vertex 31.2416697508023 34 46.5
    endloop
  endfacet
  facet normal -0.8433914458128896 0 -0.5372996083468179
    outer loop
      vertex 33.83974596215562 22 48
      vertex 34.308479557110076 34 47.264235636489545
      vertex 34.308479557110076 22 47.264235636489545
    endloop
  endfacet
  facet normal -0.8433914458128896 0 -0.5372996083468179
    outer loop
      vertex 33.83974596215562 22 48
      vertex 33.83974596215562 34 48
      vertex 34.308479557110076 34 47.264235636489545
    endloop
  endfacet
  facet normal 0 1 0
    outer loop
      vertex 33.83974596215562 22 48
      vertex 34.308479557110076 22 47.264235636489545
      vertex 31.851023424243103 22 45.543506327436404
    endloop
  endfacet
  facet normal 0 1 0
    outer loop
      vertex 33.83974596215562 22 48
      vertex 31.851023424243103 22 45.543506327436404
      vertex 31.2416697508023 22 46.5
    endloop
  endfacet
  facet normal 0 -1 0
    outer loop
      vertex 33.83974596215562 34 48
      vertex 31.851023424243103 34 45.543506327436404
      vertex 34.308479557110076 34 47.264235636489545
    endloop
  endfacet
  facet normal 0 -1 0
    outer loop
      vertex 33.83974596215562 34 48
      vertex 31.2416697508023 34 46.5
      vertex 31.851023424243103 34 45.543506327436404
    endloop
  endfacet
  facet normal 0.7933533402912359 0 0.6087614290087194
    outer loop
      vertex 31.851023424243103 22 45.543506327436404
      vertex 32.54142223945328 22 44.64376107407499
      vertex 32.54142223945328 34 44.64376107407499
    endloop
  endfacet
  facet normal 0.7933533402912359 0 0.6087614290087194
    outer loop
      vertex 31.851023424243103 22 45.543506327436404
      vertex 32.54142223945328 34 44.64376107407499
      vertex 31.851023424243103 34 45.543506327436404
    endloop
  endfacet
  facet normal -0.793353340291233 0 -0.6087614290087238
    outer loop
      vertex 34.308479557110076 22 47.264235636489545
      vertex 34.83955556881022 34 46.57212390313461
      vertex 34.83955556881022 22 46.57212390313461
    endloop
  endfacet
  facet normal -0.793353340291233 0 -0.6087614290087238
    outer loop
      vertex 34.308479557110076 22 47.264235636489545
      vertex 34.308479557110076 34 47.264235636489545
      vertex 34.83955556881022 34 46.57212390313461
    endloop
  endfacet
  facet normal 0 1 0
    outer loop
      vertex 34.308479557110076 22 47.264235636489545
      vertex 34.83955556881022 22 46.57212390313461
      vertex 32.54142223945328 22 44.64376107407499
    endloop
  endfacet
  facet normal 0 1 0
    outer loop
      vertex 34.308479557110076 22 47.264235636489545
      vertex 32.54142223945328 22 44.64376107407499
      vertex 31.851023424243103 22 45.543506327436404
    endloop
  endfacet
  facet normal 0 -1 0
    outer loop
      vertex 34.308479557110076 34 47.264235636489545
      vertex 32.54142223945328 34 44.64376107407499
      vertex 34.83955556881022 34 46.57212390313461
    endloop
  endfacet
  facet normal 0 -1 0
    outer loop
      vertex 34.308479557110076 34 47.264235636489545
      vertex 31.851023424243103 34 45.543506327436404
      vertex 32.54142223945328 34 44.64376107407499
    endloop
  endfacet
  facet normal 0.7372773368101251 0 0.6755902076156591
    outer loop
      vertex 32.54142223945328 22 44.64376107407499
      vertex 33.30761184457488 22 43.80761184457488
      vertex 33.30761184457488 34 43.80761184457488
    endloop
  endfacet
  facet normal 0.7372773368101251 0 0.6755902076156591
    outer loop
      vertex 32.54142223945328 22 44.64376107407499
      vertex 33.30761184457488 34 43.80761184457488
      vertex 32.54142223945328 34 44.64376107407499
    endloop
  endfacet
  facet normal -0.7372773368101259 0 -0.6755902076156582
    outer loop
      vertex 34.83955556881022 22 46.57212390313461
      vertex 35.428932188134524 34 45.928932188134524
      vertex 35.428932188134524 22 45.928932188134524
    endloop
  endfacet
  facet normal -0.7372773368101259 0 -0.6755902076156582
    outer loop
      vertex 34.83955556881022 22 46.57212390313461
      vertex 34.83955556881022 34 46.57212390313461
      vertex 35.428932188134524 34 45.928932188134524
    endloop
  endfacet
  facet normal 0 1 0
    outer loop
      vertex 34.83955556881022 22 46.57212390313461
      vertex 35.428932188134524 22 45.928932188134524
      vertex 33.30761184457488 22 43.80761184457488
    endloop
  endfacet
  facet normal 0 1 0
    outer loop
      vertex 34.83955556881022 22 46.57212390313461
      vertex 33.30761184457488 22 43.80761184457488
      vertex 32.54142223945328 22 44.64376107407499
    endloop
  endfacet
  facet normal 0 -1 0
    outer loop
      vertex 34.83955556881022 34 46.57212390313461
      vertex 33.30761184457488 34 43.80761184457488
      vertex 35.428932188134524 34 45.928932188134524
    endloop
  endfacet
  facet normal 0 -1 0
    outer loop
      vertex 34.83955556881022 34 46.57212390313461
      vertex 32.54142223945328 34 44.64376107407499
      vertex 33.30761184457488 34 43.80761184457488
    endloop
  endfacet
  facet normal 0.6755902076156591 0 0.7372773368101251
    outer loop
      vertex 33.30761184457488 22 43.80761184457488
      vertex 34.14376107407499 22 43.04142223945328
      vertex 34.14376107407499 34 43.04142223945328
    endloop
  endfacet
  facet normal 0.6755902076156591 0 0.7372773368101251
    outer loop
      vertex 33.30761184457488 22 43.80761184457488
      vertex 34.14376107407499 34 43.04142223945328
      vertex 33.30761184457488 34 43.80761184457488
    endloop
  endfacet
  facet normal -0.6755902076156622 0 -0.7372773368101221
    outer loop
      vertex 35.428932188134524 22 45.928932188134524
      vertex 36.0721239031346 34 45.33955556881022
      vertex 36.0721239031346 22 45.33955556881022
    endloop
  endfacet
  facet normal -0.6755902076156622 0 -0.7372773368101221
    outer loop
      vertex 35.428932188134524 22 45.928932188134524
      vertex 35.428932188134524 34 45.928932188134524
      vertex 36.0721239031346 34 45.33955556881022
    endloop
  endfacet
  facet normal 0 1 0
    outer loop
      vertex 35.428932188134524 22 45.928932188134524
      vertex 36.0721239031346 22 45.33955556881022
      vertex 34.14376107407499 22 43.04142223945328
    endloop
  endfacet
  facet normal 0 1 0
    outer loop
      vertex 35.428932188134524 22 45.928932188134524
      vertex 34.14376107407499 22 43.04142223945328
      vertex 33.30761184457488 22 43.80761184457488
    endloop
  endfacet
  facet normal 0 -1 0
    outer loop
      vertex 35.428932188134524 34 45.928932188134524
      vertex 34.14376107407499 34 43.04142223945328
      vertex 36.0721239031346 34 45.33955556881022
    endloop
  endfacet
  facet normal 0 -1 0
    outer loop
      vertex 35.428932188134524 34 45.928932188134524
      vertex 33.30761184457488 34 43.80761184457488
      vertex 34.14376107407499 34 43.04142223945328
    endloop
  endfacet
  facet normal 0.6087614290087187 0 0.7933533402912368
    outer loop
      vertex 34.14376107407499 22 43.04142223945328
      vertex 35.0435063274364 22 42.35102342424311
      vertex 35.0435063274364 34 42.35102342424311
    endloop
  endfacet
  facet normal 0.6087614290087187 0 0.7933533402912368
    outer loop
      vertex 34.14376107407499 22 43.04142223945328
      vertex 35.0435063274364 34 42.35102342424311
      vertex 34.14376107407499 34 43.04142223945328
    endloop
  endfacet
  facet normal -0.6087614290087187 0 -0.7933533402912368
    outer loop
      vertex 36.0721239031346 22 45.33955556881022
      vertex 36.76423563648954 34 44.80847955711008
      vertex 36.76423563648954 22 44.80847955711008
    endloop
  endfacet
  facet normal -0.6087614290087187 0 -0.7933533402912368
    outer loop
      vertex 36.0721239031346 22 45.33955556881022
      vertex 36.0721239031346 34 45.33955556881022
      vertex 36.76423563648954 34 44.80847955711008
    endloop
  endfacet
  facet normal 0 1 0
    outer loop
      vertex 36.0721239031346 22 45.33955556881022
      vertex 36.76423563648954 22 44.80847955711008
      vertex 35.0435063274364 22 42.35102342424311
    endloop
  endfacet
  facet normal 0 1 0
    outer loop
      vertex 36.0721239031346 22 45.33955556881022
      vertex 35.0435063274364 22 42.35102342424311
      vertex 34.14376107407499 22 43.04142223945328
    endloop
  endfacet
  facet normal 0 -1 0
    outer loop
      vertex 36.0721239031346 34 45.33955556881022
      vertex 35.0435063274364 34 42.35102342424311
      vertex 36.76423563648954 34 44.80847955711008
    endloop
  endfacet
  facet normal 0 -1 0
    outer loop
      vertex 36.0721239031346 34 45.33955556881022
      vertex 34.14376107407499 34 43.04142223945328
      vertex 35.0435063274364 34 42.35102342424311
    endloop
  endfacet
  facet normal 0.5372996083468241 0 0.8433914458128854
    outer loop
      vertex 35.0435063274364 22 42.35102342424311
      vertex 35.99999999999999 22 41.7416697508023
      vertex 35.99999999999999 34 41.7416697508023
    endloop
  endfacet
  facet normal 0.5372996083468241 0 0.8433914458128854
    outer loop
      vertex 35.0435063274364 22 42.35102342424311
      vertex 35.99999999999999 34 41.7416697508023
      vertex 35.0435063274364 34 42.35102342424311
    endloop
  endfacet
  facet normal -0.5372996083468237 0 -0.8433914458128859
    outer loop
      vertex 36.76423563648954 22 44.80847955711008
      vertex 37.49999999999999 34 44.33974596215562
      vertex 37.49999999999999 22 44.33974596215562
    endloop
  endfacet
  facet normal -0.5372996083468237 0 -0.8433914458128859
    outer loop
      vertex 36.76423563648954 22 44.80847955711008
      vertex 36.76423563648954 34 44.80847955711008
      vertex 37.49999999999999 34 44.33974596215562
    endloop
  endfacet
  facet normal 0 1 0
    outer loop
      vertex 36.76423563648954 22 44.80847955711008
      vertex 37.49999999999999 22 44.33974596215562
      vertex 35.99999999999999 22 41.7416697508023
    endloop
  endfacet
  facet normal 0 1 0
    outer loop
      vertex 36.76423563648954 22 44.80847955711008
      vertex 35.99999999999999 22 41.7416697508023
      vertex 35.0435063274364 22 42.35102342424311
    endloop
  endfacet
  facet normal 0 -1 0
    outer loop
      vertex 36.76423563648954 34 44.80847955711008
      vertex 35.99999999999999 34 41.7416697508023
      vertex 37.49999999999999 34 44.33974596215562
    endloop
  endfacet
  facet normal 0 -1 0
    outer loop
      vertex 36.76423563648954 34 44.80847955711008
      vertex 35.0435063274364 34 42.35102342424311
      vertex 35.99999999999999 34 41.7416697508023
    endloop
  endfacet
  facet normal 0.4617486132350312 0 0.8870108331782233
    outer loop
      vertex 35.99999999999999 22 41.7416697508023
      vertex 37.0059625973709 22 41.21799876852356
      vertex 37.0059625973709 34 41.21799876852356
    endloop
  endfacet
  facet normal 0.4617486132350312 0 0.8870108331782233
    outer loop
      vertex 35.99999999999999 22 41.7416697508023
      vertex 37.0059625973709 34 41.21799876852356
      vertex 35.99999999999999 34 41.7416697508023
    endloop
  endfacet
  facet normal -0.4617486132350355 0 -0.8870108331782207
    outer loop
      vertex 37.49999999999999 22 44.33974596215562
      vertex 38.273817382593 34 43.9369221296335
      vertex 38.273817382593 22 43.9369221296335
    endloop
  endfacet
  facet normal -0.4617486132350355 0 -0.8870108331782207
    outer loop
      vertex 37.49999999999999 22 44.33974596215562
      vertex 37.49999999999999 34 44.33974596215562
      vertex 38.273817382593 34 43.9369221296335
    endloop
  endfacet
  facet normal 0 1 0
    outer loop
      vertex 37.49999999999999 22 44.33974596215562
      vertex 38.273817382593 22 43.9369221296335
      vertex 37.0059625973709 22 41.21799876852356
    endloop
  endfacet
  facet normal 0 1 0
    outer loop
      vertex 37.49999999999999 22 44.33974596215562
      vertex 37.0059625973709 22 41.21799876852356
      vertex 35.99999999999999 22 41.7416697508023
    endloop
  endfacet
  facet normal 0 -1 0
    outer loop
      vertex 37.49999999999999 34 44.33974596215562
      vertex 37.0059625973709 34 41.21799876852356
      vertex 38.273817382593 34 43.9369221296335
    endloop
  endfacet
  facet normal 0 -1 0
    outer loop
      vertex 37.49999999999999 34 44.33974596215562
      vertex 35.99999999999999 34 41.7416697508023
      vertex 37.0059625973709 34 41.21799876852356
    endloop
  endfacet
  facet normal 0.3826834323650929 0 0.9238795325112856
    outer loop
      vertex 37.0059625973709 22 41.21799876852356
      vertex 38.0537381367663 22 40.783995929783195
      vertex 38.0537381367663 34 40.783995929783195
    endloop
  endfacet
  facet normal 0.3826834323650929 0 0.9238795325112856
    outer loop
      vertex 37.0059625973709 22 41.21799876852356
      vertex 38.0537381367663 34 40.783995929783195
      vertex 37.0059625973709 34 41.21799876852356
    endloop
  endfacet
  facet normal -0.3826834323650894 0 -0.9238795325112868
    outer loop
      vertex 38.273817382593 22 43.9369221296335
      vertex 39.07979856674331 34 43.60307379214092
      vertex 39.07979856674331 22 43.60307379214092
    endloop
  endfacet
  facet normal -0.3826834323650894 0 -0.9238795325112868
    outer loop
      vertex 38.273817382593 22 43.9369221296335
      vertex 38.273817382593 34 43.9369221296335
      vertex 39.07979856674331 34 43.60307379214092
    endloop
  endfacet
  facet normal 0 1 0
    outer loop
      vertex 38.273817382593 22 43.9369221296335
      vertex 39.07979856674331 22 43.60307379214092
      vertex 38.0537381367663 22 40.783995929783195
    endloop
  endfacet
  facet normal 0 1 0
    outer loop
      vertex 38.273817382593 22 43.9369221296335
      vertex 38.0537381367663 22 40.783995929783195
      vertex 37.0059625973709 22 41.21799876852356
    endloop
  endfacet
  facet normal 0 -1 0
    outer loop
      vertex 38.273817382593 34 43.9369221296335
      vertex 38.0537381367663 34 40.783995929783195
      vertex 39.07979856674331 34 43.60307379214092
    endloop
  endfacet
  facet normal 0 -1 0
    outer loop
      vertex 38.273817382593 34 43.9369221296335
      vertex 37.0059625973709 34 41.21799876852356
      vertex 38.0537381367663 34 40.783995929783195
    endloop
  endfacet
  facet normal 0.30070579950427223 0 0.9537169507482274
    outer loop
      vertex 38.0537381367663 22 40.783995929783195
      vertex 39.135352413667235 22 40.442964258242114
      vertex 39.135352413667235 34 40.442964258242114
    endloop
  endfacet
  facet normal 0.30070579950427223 0 0.9537169507482274
    outer loop
      vertex 38.0537381367663 22 40.783995929783195
      vertex 39.135352413667235 34 40.442964258242114
      vertex 38.0537381367663 34 40.783995929783195
    endloop
  endfacet
  facet normal -0.300705799504271 0 -0.9537169507482276
    outer loop
      vertex 39.07979856674331 22 43.60307379214092
      vertex 39.911809548974794 34 43.34074173710932
      vertex 39.911809548974794 22 43.34074173710932
    endloop
  endfacet
  facet normal -0.300705799504271 0 -0.9537169507482276
    outer loop
      vertex 39.07979856674331 22 43.60307379214092
      vertex 39.07979856674331 34 43.60307379214092
      vertex 39.911809548974794 34 43.34074173710932
    endloop
  endfacet
  facet normal 0 1 0
    outer loop
      vertex 39.07979856674331 22 43.60307379214092
      vertex 39.911809548974794 22 43.34074173710932
      vertex 39.135352413667235 22 40.442964258242114
    endloop
  endfacet
  facet normal 0 1 0
    outer loop
      vertex 39.07979856674331 22 43.60307379214092
      vertex 39.135352413667235 22 40.442964258242114
      vertex 38.0537381367663 22 40.783995929783195
    endloop
  endfacet
  facet normal 0 -1 0
    outer loop
      vertex 39.07979856674331 34 43.60307379214092
      vertex 39.135352413667235 34 40.442964258242114
      vertex 39.911809548974794 34 43.34074173710932
    endloop
  endfacet
  facet normal 0 -1 0
    outer loop
      vertex 39.07979856674331 34 43.60307379214092
      vertex 38.0537381367663 34 40.783995929783195
      vertex 39.135352413667235 34 40.442964258242114
    endloop
  endfacet
  facet normal 0.21643961393810665 0 0.9762960071199327
    outer loop
      vertex 39.135352413667235 22 40.442964258242114
      vertex 40.242573690329905 22 40.19749921084129
      vertex 40.242573690329905 34 40.19749921084129
    endloop
  endfacet
  facet normal 0.21643961393810665 0 0.9762960071199327
    outer loop
      vertex 39.135352413667235 22 40.442964258242114
      vertex 40.242573690329905 34 40.19749921084129
      vertex 39.135352413667235 34 40.442964258242114
    endloop
  endfacet
  facet normal -0.21643961393810737 0 -0.9762960071199325
    outer loop
      vertex 39.911809548974794 22 43.34074173710932
      vertex 40.7635182233307 34 43.15192246987792
      vertex 40.7635182233307 22 43.15192246987792
    endloop
  endfacet
  facet normal -0.21643961393810737 0 -0.9762960071199325
    outer loop
      vertex 39.911809548974794 22 43.34074173710932
      vertex 39.911809548974794 34 43.34074173710932
      vertex 40.7635182233307 34 43.15192246987792
    endloop
  endfacet
  facet normal 0 1 0
    outer loop
      vertex 39.911809548974794 22 43.34074173710932
      vertex 40.7635182233307 22 43.15192246987792
      vertex 40.242573690329905 22 40.19749921084129
    endloop
  endfacet
  facet normal 0 1 0
    outer loop
      vertex 39.911809548974794 22 43.34074173710932
      vertex 40.242573690329905 22 40.19749921084129
      vertex 39.135352413667235 22 40.442964258242114
    endloop
  endfacet
  facet normal 0 -1 0
    outer loop
      vertex 39.911809548974794 34 43.34074173710932
      vertex 40.242573690329905 34 40.19749921084129
      vertex 40.7635182233307 34 43.15192246987792
    endloop
  endfacet
  facet normal 0 -1 0
    outer loop
      vertex 39.911809548974794 34 43.34074173710932
      vertex 39.135352413667235 34 40.442964258242114
      vertex 40.242573690329905 34 40.19749921084129
    endloop
  endfacet
  facet normal 0.1305261922200511 0 0.9914448613738106
    outer loop
      vertex 40.242573690329905 22 40.19749921084129
      vertex 41.36697534428044 22 40.04946892480731
      vertex 41.36697534428044 34 40.04946892480731
    endloop
  endfacet
  facet normal 0.1305261922200511 0 0.9914448613738106
    outer loop
      vertex 40.242573690329905 22 40.19749921084129
      vertex 41.36697534428044 34 40.04946892480731
      vertex 40.242573690329905 34 40.19749921084129
    endloop
  endfacet
  facet normal -0.13052619222004677 0 -0.991444861373811
    outer loop
      vertex 40.7635182233307 22 43.15192246987792
      vertex 41.62844257252342 34 43.03805301908255
      vertex 41.62844257252342 22 43.03805301908255
    endloop
  endfacet
  facet normal -0.13052619222004677 0 -0.991444861373811
    outer loop
      vertex 40.7635182233307 22 43.15192246987792
      vertex 40.7635182233307 34 43.15192246987792
      vertex 41.62844257252342 34 43.03805301908255
    endloop
  endfacet
  facet normal 0 1 0
    outer loop
      vertex 40.7635182233307 22 43.15192246987792
      vertex 41.62844257252342 22 43.03805301908255
      vertex 41.36697534428044 22 40.04946892480731
    endloop
  endfacet
  facet normal 0 1 0
    outer loop
      vertex 40.7635182233307 22 43.15192246987792
      vertex 41.36697534428044 22 40.04946892480731
      vertex 40.242573690329905 22 40.19749921084129
    endloop
  endfacet
  facet normal 0 -1 0
    outer loop
      vertex 40.7635182233307 34 43.15192246987792
      vertex 41.36697534428044 34 40.04946892480731
      vertex 41.62844257252342 34 43.03805301908255
    endloop
  endfacet
  facet normal 0 -1 0
    outer loop
      vertex 40.7635182233307 34 43.15192246987792
      vertex 40.242573690329905 34 40.19749921084129
      vertex 41.36697534428044 34 40.04946892480731
    endloop
  endfacet
  facet normal 0.04361938736533515 0 0.9990482215818578
    outer loop
      vertex 41.36697534428044 22 40.04946892480731
      vertex 42.5 22 40
      vertex 42.5 34 40
    endloop
  endfacet
  facet normal 0.04361938736533515 0 0.9990482215818578
    outer loop
      vertex 41.36697534428044 22 40.04946892480731
      vertex 42.5 34 40
      vertex 41.36697534428044 34 40.04946892480731
    endloop
  endfacet
  facet normal -0.0436193873653384 0 -0.9990482215818575
    outer loop
      vertex 41.62844257252342 22 43.03805301908255
      vertex 42.5 34 43
      vertex 42.5 22 43
    endloop
  endfacet
  facet normal -0.0436193873653384 0 -0.9990482215818575
    outer loop
      vertex 41.62844257252342 22 43.03805301908255
      vertex 41.62844257252342 34 43.03805301908255
      vertex 42.5 34 43
    endloop
  endfacet
  facet normal 0 1 0
    outer loop
      vertex 41.62844257252342 22 43.03805301908255
      vertex 42.5 22 43
      vertex 42.5 22 40
    endloop
  endfacet
  facet normal 0 1 0
    outer loop
      vertex 41.62844257252342 22 43.03805301908255
      vertex 42.5 22 40
      vertex 41.36697534428044 22 40.04946892480731
    endloop
  endfacet
  facet normal 0 -1 0
    outer loop
      vertex 41.62844257252342 34 43.03805301908255
      vertex 42.5 34 40
      vertex 42.5 34 43
    endloop
  endfacet
  facet normal 0 -1 0
    outer loop
      vertex 41.62844257252342 34 43.03805301908255
      vertex 41.36697534428044 34 40.04946892480731
      vertex 42.5 34 40
    endloop
  endfacet
  facet normal -0.043619387365335424 0 0.9990482215818578
    outer loop
      vertex 42.5 22 40
      vertex 43.63302465571955 22 40.04946892480731
      vertex 43.63302465571955 34 40.04946892480731
    endloop
  endfacet
  facet normal -0.043619387365335424 0 0.9990482215818578
    outer loop
      vertex 42.5 22 40
      vertex 43.63302465571955 34 40.04946892480731
      vertex 42.5 34 40
    endloop
  endfacet
  facet normal 0.0436193873653384 0 -0.9990482215818575
    outer loop
      vertex 42.5 22 43
      vertex 43.37155742747658 34 43.03805301908255
      vertex 43.37155742747658 22 43.03805301908255
    endloop
  endfacet
  facet normal 0.0436193873653384 0 -0.9990482215818575
    outer loop
      vertex 42.5 22 43
      vertex 42.5 34 43
      vertex 43.37155742747658 34 43.03805301908255
    endloop
  endfacet
  facet normal 0 1 0
    outer loop
      vertex 42.5 22 43
      vertex 43.37155742747658 22 43.03805301908255
      vertex 43.63302465571955 22 40.04946892480731
    endloop
  endfacet
  facet normal 0 1 0
    outer loop
      vertex 42.5 22 43
      vertex 43.63302465571955 22 40.04946892480731
      vertex 42.5 22 40
    endloop
  endfacet
  facet normal 0 -1 0
    outer loop
      vertex 42.5 34 43
      vertex 43.63302465571955 34 40.04946892480731
      vertex 43.37155742747658 34 43.03805301908255
    endloop
  endfacet
  facet normal 0 -1 0
    outer loop
      vertex 42.5 34 43
      vertex 42.5 34 40
      vertex 43.63302465571955 34 40.04946892480731
    endloop
  endfacet
  facet normal -0.1305261922200511 0 0.9914448613738106
    outer loop
      vertex 43.63302465571955 22 40.04946892480731
      vertex 44.75742630967009 22 40.19749921084129
      vertex 44.75742630967009 34 40.19749921084129
    endloop
  endfacet
  facet normal -0.1305261922200511 0 0.9914448613738106
    outer loop
      vertex 43.63302465571955 22 40.04946892480731
      vertex 44.75742630967009 34 40.19749921084129
      vertex 43.63302465571955 34 40.04946892480731
    endloop
  endfacet
  facet normal 0.13052619222004677 0 -0.991444861373811
    outer loop
      vertex 43.37155742747658 22 43.03805301908255
      vertex 44.2364817766693 34 43.15192246987792
      vertex 44.2364817766693 22 43.15192246987792
    endloop
  endfacet
  facet normal 0.13052619222004677 0 -0.991444861373811
    outer loop
      vertex 43.37155742747658 22 43.03805301908255
      vertex 43.37155742747658 34 43.03805301908255
      vertex 44.2364817766693 34 43.15192246987792
    endloop
  endfacet
  facet normal 0 1 0
    outer loop
      vertex 43.37155742747658 22 43.03805301908255
      vertex 44.2364817766693 22 43.15192246987792
      vertex 44.75742630967009 22 40.19749921084129
    endloop
  endfacet
  facet normal 0 1 0
    outer loop
      vertex 43.37155742747658 22 43.03805301908255
      vertex 44.75742630967009 22 40.19749921084129
      vertex 43.63302465571955 22 40.04946892480731
    endloop
  endfacet
  facet normal 0 -1 0
    outer loop
      vertex 43.37155742747658 34 43.03805301908255
      vertex 44.75742630967009 34 40.19749921084129
      vertex 44.2364817766693 34 43.15192246987792
    endloop
  endfacet
  facet normal 0 -1 0
    outer loop
      vertex 43.37155742747658 34 43.03805301908255
      vertex 43.63302465571955 34 40.04946892480731
      vertex 44.75742630967009 34 40.19749921084129
    endloop
  endfacet
  facet normal -0.216439613938104 0 0.9762960071199333
    outer loop
      vertex 44.75742630967009 22 40.19749921084129
      vertex 45.86464758633277 22 40.442964258242114
      vertex 45.86464758633277 34 40.442964258242114
    endloop
  endfacet
  facet normal -0.216439613938104 0 0.9762960071199333
    outer loop
      vertex 44.75742630967009 22 40.19749921084129
      vertex 45.86464758633277 34 40.442964258242114
      vertex 44.75742630967009 34 40.19749921084129
    endloop
  endfacet
  facet normal 0.21643961393810565 0 -0.9762960071199328
    outer loop
      vertex 44.2364817766693 22 43.15192246987792
      vertex 45.08819045102521 34 43.34074173710932
      vertex 45.08819045102521 22 43.34074173710932
    endloop
  endfacet
  facet normal 0.21643961393810565 0 -0.9762960071199328
    outer loop
      vertex 44.2364817766693 22 43.15192246987792
      vertex 44.2364817766693 34 43.15192246987792
      vertex 45.08819045102521 34 43.34074173710932
    endloop
  endfacet
  facet normal 0 1 0
    outer loop
      vertex 44.2364817766693 22 43.15192246987792
      vertex 45.08819045102521 22 43.34074173710932
      vertex 45.86464758633277 22 40.442964258242114
    endloop
  endfacet
  facet normal 0 1 0
    outer loop
      vertex 44.2364817766693 22 43.15192246987792
      vertex 45.86464758633277 22 40.442964258242114
      vertex 44.75742630967009 22 40.19749921084129
    endloop
  endfacet
  facet normal 0 -1 0
    outer loop
      vertex 44.2364817766693 34 43.15192246987792
      vertex 45.86464758633277 34 40.442964258242114
      vertex 45.08819045102521 34 43.34074173710932
    endloop
  endfacet
  facet normal 0 -1 0
    outer loop
      vertex 44.2364817766693 34 43.15192246987792
      vertex 44.75742630967009 34 40.19749921084129
      vertex 45.86464758633277 34 40.442964258242114
    endloop
  endfacet
  facet normal -0.3007057995042719 0 0.9537169507482274
    outer loop
      vertex 45.86464758633277 22 40.442964258242114
      vertex 46.94626186323369 22 40.78399592978319
      vertex 46.94626186323369 34 40.78399592978319
    endloop
  endfacet
  facet normal -0.3007057995042719 0 0.9537169507482274
    outer loop
      vertex 45.86464758633277 22 40.442964258242114
      vertex 46.94626186323369 34 40.78399592978319
      vertex 45.86464758633277 34 40.442964258242114
    endloop
  endfacet
  facet normal 0.300705799504278 0 -0.9537169507482253
    outer loop
      vertex 45.08819045102521 22 43.34074173710932
      vertex 45.92020143325668 34 43.60307379214092
      vertex 45.92020143325668 22 43.60307379214092
    endloop
  endfacet
  facet normal 0.300705799504278 0 -0.9537169507482253
    outer loop
      vertex 45.08819045102521 22 43.34074173710932
      vertex 45.08819045102521 34 43.34074173710932
      vertex 45.92020143325668 34 43.60307379214092
    endloop
  endfacet
  facet normal 0 1 0
    outer loop
      vertex 45.08819045102521 22 43.34074173710932
      vertex 45.92020143325668 22 43.60307379214092
      vertex 46.94626186323369 22 40.78399592978319
    endloop
  endfacet
  facet normal 0 1 0
    outer loop
      vertex 45.08819045102521 22 43.34074173710932
      vertex 46.94626186323369 22 40.78399592978319
      vertex 45.86464758633277 22 40.442964258242114
    endloop
  endfacet
  facet normal 0 -1 0
    outer loop
      vertex 45.08819045102521 34 43.34074173710932
      vertex 46.94626186323369 34 40.78399592978319
      vertex 45.92020143325668 34 43.60307379214092
    endloop
  endfacet
  facet normal 0 -1 0
    outer loop
      vertex 45.08819045102521 34 43.34074173710932
      vertex 45.86464758633277 34 40.442964258242114
      vertex 46.94626186323369 34 40.78399592978319
    endloop
  endfacet
  facet normal -0.3826834323650884 0 0.9238795325112873
    outer loop
      vertex 46.94626186323369 22 40.78399592978319
      vertex 47.9940374026291 22 41.21799876852355
      vertex 47.9940374026291 34 41.21799876852355
    endloop
  endfacet
  facet normal -0.3826834323650884 0 0.9238795325112873
    outer loop
      vertex 46.94626186323369 22 40.78399592978319
      vertex 47.9940374026291 34 41.21799876852355
      vertex 46.94626186323369 34 40.78399592978319
    endloop
  endfacet
  facet normal 0.3826834323650837 0 -0.9238795325112894
    outer loop
      vertex 45.92020143325668 22 43.60307379214092
      vertex 46.726182617407 34 43.9369221296335
      vertex 46.726182617407 22 43.9369221296335
    endloop
  endfacet
  facet normal 0.3826834323650837 0 -0.9238795325112894
    outer loop
      vertex 45.92020143325668 22 43.60307379214092
      vertex 45.92020143325668 34 43.60307379214092
      vertex 46.726182617407 34 43.9369221296335
    endloop
  endfacet
  facet normal 0 1 0
    outer loop
      vertex 45.92020143325668 22 43.60307379214092
      vertex 46.726182617407 22 43.9369221296335
      vertex 47.9940374026291 22 41.21799876852355
    endloop
  endfacet
  facet normal 0 1 0
    outer loop
      vertex 45.92020143325668 22 43.60307379214092
      vertex 47.9940374026291 22 41.21799876852355
      vertex 46.94626186323369 22 40.78399592978319
    endloop
  endfacet
  facet normal 0 -1 0
    outer loop
      vertex 45.92020143325668 34 43.60307379214092
      vertex 47.9940374026291 34 41.21799876852355
      vertex 46.726182617407 34 43.9369221296335
    endloop
  endfacet
  facet normal 0 -1 0
    outer loop
      vertex 45.92020143325668 34 43.60307379214092
      vertex 46.94626186323369 34 40.78399592978319
      vertex 47.9940374026291 34 41.21799876852355
    endloop
  endfacet
  facet normal -0.4617486132350386 0 0.8870108331782192
    outer loop
      vertex 47.9940374026291 22 41.21799876852355
      vertex 49 22 41.7416697508023
      vertex 49 34 41.7416697508023
    endloop
  endfacet
  facet normal -0.4617486132350386 0 0.8870108331782192
    outer loop
      vertex 47.9940374026291 22 41.21799876852355
      vertex 49 34 41.7416697508023
      vertex 47.9940374026291 34 41.21799876852355
    endloop
  endfacet
  facet normal 0.46174861323503896 0 -0.8870108331782193
    outer loop
      vertex 46.726182617407 22 43.9369221296335
      vertex 47.5 34 44.33974596215562
      vertex 47.5 22 44.33974596215562
    endloop
  endfacet
  facet normal 0.46174861323503896 0 -0.8870108331782193
    outer loop
      vertex 46.726182617407 22 43.9369221296335
      vertex 46.726182617407 34 43.9369221296335
      vertex 47.5 34 44.33974596215562
    endloop
  endfacet
  facet normal 0 1 0
    outer loop
      vertex 46.726182617407 22 43.9369221296335
      vertex 47.5 22 44.33974596215562
      vertex 49 22 41.7416697508023
    endloop
  endfacet
  facet normal 0 1 0
    outer loop
      vertex 46.726182617407 22 43.9369221296335
      vertex 49 22 41.7416697508023
      vertex 47.9940374026291 22 41.21799876852355
    endloop
  endfacet
  facet normal 0 -1 0
    outer loop
      vertex 46.726182617407 34 43.9369221296335
      vertex 49 34 41.7416697508023
      vertex 47.5 34 44.33974596215562
    endloop
  endfacet
  facet normal 0 -1 0
    outer loop
      vertex 46.726182617407 34 43.9369221296335
      vertex 47.9940374026291 34 41.21799876852355
      vertex 49 34 41.7416697508023
    endloop
  endfacet
  facet normal -0.5372996083468241 0 0.8433914458128854
    outer loop
      vertex 49 22 41.7416697508023
      vertex 49.956493672563596 22 42.35102342424311
      vertex 49.956493672563596 34 42.35102342424311
    endloop
  endfacet
  facet normal -0.5372996083468241 0 0.8433914458128854
    outer loop
      vertex 49 22 41.7416697508023
      vertex 49.956493672563596 34 42.35102342424311
      vertex 49 34 41.7416697508023
    endloop
  endfacet
  facet normal 0.53729960834682 0 -0.8433914458128882
    outer loop
      vertex 47.5 22 44.33974596215562
      vertex 48.23576436351046 34 44.80847955711008
      vertex 48.23576436351046 22 44.80847955711008
    endloop
  endfacet
  facet normal 0.53729960834682 0 -0.8433914458128882
    outer loop
      vertex 47.5 22 44.33974596215562
      vertex 47.5 34 44.33974596215562
      vertex 48.23576436351046 34 44.80847955711008
    endloop
  endfacet
  facet normal 0 1 0
    outer loop
      vertex 47.5 22 44.33974596215562
      vertex 48.23576436351046 22 44.80847955711008
      vertex 49.956493672563596 22 42.35102342424311
    endloop
  endfacet
  facet normal 0 1 0
    outer loop
      vertex 47.5 22 44.33974596215562
      vertex 49.956493672563596 22 42.35102342424311
      vertex 49 22 41.7416697508023
    endloop
  endfacet
  facet normal 0 -1 0
    outer loop
      vertex 47.5 34 44.33974596215562
      vertex 49.956493672563596 34 42.35102342424311
      vertex 48.23576436351046 34 44.80847955711008
    endloop
  endfacet
  facet normal 0 -1 0
    outer loop
      vertex 47.5 34 44.33974596215562
      vertex 49 34 41.7416697508023
      vertex 49.956493672563596 34 42.35102342424311
    endloop
  endfacet
  facet normal -0.6087614290087155 0 0.793353340291239
    outer loop
      vertex 49.956493672563596 22 42.35102342424311
      vertex 50.85623892592501 22 43.04142223945328
      vertex 50.85623892592501 34 43.04142223945328
    endloop
  endfacet
  facet normal -0.6087614290087155 0 0.793353340291239
    outer loop
      vertex 49.956493672563596 22 42.35102342424311
      vertex 50.85623892592501 34 43.04142223945328
      vertex 49.956493672563596 34 42.35102342424311
    endloop
  endfacet
  facet normal 0.6087614290087224 0 -0.7933533402912336
    outer loop
      vertex 48.23576436351046 22 44.80847955711008
      vertex 48.92787609686539 34 45.33955556881022
      vertex 48.92787609686539 22 45.33955556881022
    endloop
  endfacet
  facet normal 0.6087614290087224 0 -0.7933533402912336
    outer loop
      vertex 48.23576436351046 22 44.80847955711008
      vertex 48.23576436351046 34 44.80847955711008
      vertex 48.92787609686539 34 45.33955556881022
    endloop
  endfacet
  facet normal 0 1 0
    outer loop
      vertex 48.23576436351046 22 44.80847955711008
      vertex 48.92787609686539 22 45.33955556881022
      vertex 50.85623892592501 22 43.04142223945328
    endloop
  endfacet
  facet normal 0 1 0
    outer loop
      vertex 48.23576436351046 22 44.80847955711008
      vertex 50.85623892592501 22 43.04142223945328
      vertex 49.956493672563596 22 42.35102342424311
    endloop
  endfacet
  facet normal 0 -1 0
    outer loop
      vertex 48.23576436351046 34 44.80847955711008
      vertex 50.85623892592501 34 43.04142223945328
      vertex 48.92787609686539 34 45.33955556881022
    endloop
  endfacet
  facet normal 0 -1 0
    outer loop
      vertex 48.23576436351046 34 44.80847955711008
      vertex 49.956493672563596 34 42.35102342424311
      vertex 50.85623892592501 34 43.04142223945328
    endloop
  endfacet
  facet normal -0.6755902076156622 0 0.7372773368101221
    outer loop
      vertex 50.85623892592501 22 43.04142223945328
      vertex 51.692388155425114 22 43.80761184457488
      vertex 51.692388155425114 34 43.80761184457488
    endloop
  endfacet
  facet normal -0.6755902076156622 0 0.7372773368101221
    outer loop
      vertex 50.85623892592501 22 43.04142223945328
      vertex 51.692388155425114 34 43.80761184457488
      vertex 50.85623892592501 34 43.04142223945328
    endloop
  endfacet
  facet normal 0.6755902076156582 0 -0.7372773368101259
    outer loop
      vertex 48.92787609686539 22 45.33955556881022
      vertex 49.571067811865476 34 45.928932188134524
      vertex 49.571067811865476 22 45.928932188134524
    endloop
  endfacet
  facet normal 0.6755902076156582 0 -0.7372773368101259
    outer loop
      vertex 48.92787609686539 22 45.33955556881022
      vertex 48.92787609686539 34 45.33955556881022
      vertex 49.571067811865476 34 45.928932188134524
    endloop
  endfacet
  facet normal 0 1 0
    outer loop
      vertex 48.92787609686539 22 45.33955556881022
      vertex 49.571067811865476 22 45.928932188134524
      vertex 51.692388155425114 22 43.80761184457488
    endloop
  endfacet
  facet normal 0 1 0
    outer loop
      vertex 48.92787609686539 22 45.33955556881022
      vertex 51.692388155425114 22 43.80761184457488
      vertex 50.85623892592501 22 43.04142223945328
    endloop
  endfacet
  facet normal 0 -1 0
    outer loop
      vertex 48.92787609686539 34 45.33955556881022
      vertex 51.692388155425114 34 43.80761184457488
      vertex 49.571067811865476 34 45.928932188134524
    endloop
  endfacet
  facet normal 0 -1 0
    outer loop
      vertex 48.92787609686539 34 45.33955556881022
      vertex 50.85623892592501 34 43.04142223945328
      vertex 51.692388155425114 34 43.80761184457488
    endloop
  endfacet
  facet normal -0.7372773368101251 0 0.6755902076156591
    outer loop
      vertex 51.692388155425114 22 43.80761184457488
      vertex 52.45857776054671 22 44.64376107407499
      vertex 52.45857776054671 34 44.64376107407499
    endloop
  endfacet
  facet normal -0.7372773368101251 0 0.6755902076156591
    outer loop
      vertex 51.692388155425114 22 43.80761184457488
      vertex 52.45857776054671 34 44.64376107407499
      vertex 51.692388155425114 34 43.80761184457488
    endloop
  endfacet
  facet normal 0.7372773368101221 0 -0.6755902076156622
    outer loop
      vertex 49.571067811865476 22 45.928932188134524
      vertex 50.16044443118978 34 46.5721239031346
      vertex 50.16044443118978 22 46.5721239031346
    endloop
  endfacet
  facet normal 0.7372773368101221 0 -0.6755902076156622
    outer loop
      vertex 49.571067811865476 22 45.928932188134524
      vertex 49.571067811865476 34 45.928932188134524
      vertex 50.16044443118978 34 46.5721239031346
    endloop
  endfacet
  facet normal 0 1 0
    outer loop
      vertex 49.571067811865476 22 45.928932188134524
      vertex 50.16044443118978 22 46.5721239031346
      vertex 52.45857776054671 22 44.64376107407499
    endloop
  endfacet
  facet normal 0 1 0
    outer loop
      vertex 49.571067811865476 22 45.928932188134524
      vertex 52.45857776054671 22 44.64376107407499
      vertex 51.692388155425114 22 43.80761184457488
    endloop
  endfacet
  facet normal 0 -1 0
    outer loop
      vertex 49.571067811865476 34 45.928932188134524
      vertex 52.45857776054671 34 44.64376107407499
      vertex 50.16044443118978 34 46.5721239031346
    endloop
  endfacet
  facet normal 0 -1 0
    outer loop
      vertex 49.571067811865476 34 45.928932188134524
      vertex 51.692388155425114 34 43.80761184457488
      vertex 52.45857776054671 34 44.64376107407499
    endloop
  endfacet
  facet normal -0.7933533402912337 0 0.6087614290087225
    outer loop
      vertex 52.45857776054671 22 44.64376107407499
      vertex 53.14897657575689 22 45.5435063274364
      vertex 53.14897657575689 34 45.5435063274364
    endloop
  endfacet
  facet normal -0.7933533402912337 0 0.6087614290087225
    outer loop
      vertex 52.45857776054671 22 44.64376107407499
      vertex 53.14897657575689 34 45.5435063274364
      vertex 52.45857776054671 34 44.64376107407499
    endloop
  endfacet
  facet normal 0.7933533402912368 0 -0.6087614290087187
    outer loop
      vertex 50.16044443118978 22 46.5721239031346
      vertex 50.69152044288992 34 47.26423563648954
      vertex 50.69152044288992 22 47.26423563648954
    endloop
  endfacet
  facet normal 0.7933533402912368 0 -0.6087614290087187
    outer loop
      vertex 50.16044443118978 22 46.5721239031346
      vertex 50.16044443118978 34 46.5721239031346
      vertex 50.69152044288992 34 47.26423563648954
    endloop
  endfacet
  facet normal 0 1 0
    outer loop
      vertex 50.16044443118978 22 46.5721239031346
      vertex 50.69152044288992 22 47.26423563648954
      vertex 53.14897657575689 22 45.5435063274364
    endloop
  endfacet
  facet normal 0 1 0
    outer loop
      vertex 50.16044443118978 22 46.5721239031346
      vertex 53.14897657575689 22 45.5435063274364
      vertex 52.45857776054671 22 44.64376107407499
    endloop
  endfacet
  facet normal 0 -1 0
    outer loop
      vertex 50.16044443118978 34 46.5721239031346
      vertex 53.14897657575689 34 45.5435063274364
      vertex 50.69152044288992 34 47.26423563648954
    endloop
  endfacet
  facet normal 0 -1 0
    outer loop
      vertex 50.16044443118978 34 46.5721239031346
      vertex 52.45857776054671 34 44.64376107407499
      vertex 53.14897657575689 34 45.5435063274364
    endloop
  endfacet
  facet normal -0.8433914458128854 0 0.5372996083468241
    outer loop
      vertex 53.14897657575689 22 45.5435063274364
      vertex 53.7583302491977 22 46.49999999999999
      vertex 53.7583302491977 34 46.49999999999999
    endloop
  endfacet
  facet normal -0.8433914458128854 0 0.5372996083468241
    outer loop
      vertex 53.14897657575689 22 45.5435063274364
      vertex 53.7583302491977 34 46.49999999999999
      vertex 53.14897657575689 34 45.5435063274364
    endloop
  endfacet
  facet normal 0.8433914458128859 0 -0.5372996083468237
    outer loop
      vertex 50.69152044288992 22 47.26423563648954
      vertex 51.16025403784438 34 47.99999999999999
      vertex 51.16025403784438 22 47.99999999999999
    endloop
  endfacet
  facet normal 0.8433914458128859 0 -0.5372996083468237
    outer loop
      vertex 50.69152044288992 22 47.26423563648954
      vertex 50.69152044288992 34 47.26423563648954
      vertex 51.16025403784438 34 47.99999999999999
    endloop
  endfacet
  facet normal 0 1 0
    outer loop
      vertex 50.69152044288992 22 47.26423563648954
      vertex 51.16025403784438 22 47.99999999999999
      vertex 53.7583302491977 22 46.49999999999999
    endloop
  endfacet
  facet normal 0 1 0
    outer loop
      vertex 50.69152044288992 22 47.26423563648954
      vertex 53.7583302491977 22 46.49999999999999
      vertex 53.14897657575689 22 45.5435063274364
    endloop
  endfacet
  facet normal 0 -1 0
    outer loop
      vertex 50.69152044288992 34 47.26423563648954
      vertex 53.7583302491977 34 46.49999999999999
      vertex 51.16025403784438 34 47.99999999999999
    endloop
  endfacet
  facet normal 0 -1 0
    outer loop
      vertex 50.69152044288992 34 47.26423563648954
      vertex 53.14897657575689 34 45.5435063274364
      vertex 53.7583302491977 34 46.49999999999999
    endloop
  endfacet
  facet normal -0.8870108331782218 0 0.46174861323503374
    outer loop
      vertex 53.7583302491977 22 46.49999999999999
      vertex 54.28200123147644 22 47.505962597370896
      vertex 54.28200123147644 34 47.505962597370896
    endloop
  endfacet
  facet normal -0.8870108331782218 0 0.46174861323503374
    outer loop
      vertex 53.7583302491977 22 46.49999999999999
      vertex 54.28200123147644 34 47.505962597370896
      vertex 53.7583302491977 34 46.49999999999999
    endloop
  endfacet
  facet normal 0.8870108331782207 0 -0.4617486132350355
    outer loop
      vertex 51.16025403784438 22 47.99999999999999
      vertex 51.5630778703665 34 48.773817382593
      vertex 51.5630778703665 22 48.773817382593
    endloop
  endfacet
  facet normal 0.8870108331782207 0 -0.4617486132350355
    outer loop
      vertex 51.16025403784438 22 47.99999999999999
      vertex 51.16025403784438 34 47.99999999999999
      vertex 51.5630778703665 34 48.773817382593
    endloop
  endfacet
  facet normal 0 1 0
    outer loop
      vertex 51.16025403784438 22 47.99999999999999
      vertex 51.5630778703665 22 48.773817382593
      vertex 54.28200123147644 22 47.505962597370896
    endloop
  endfacet
  facet normal 0 1 0
    outer loop
      vertex 51.16025403784438 22 47.99999999999999
      vertex 54.28200123147644 22 47.505962597370896
      vertex 53.7583302491977 22 46.49999999999999
    endloop
  endfacet
  facet normal 0 -1 0
    outer loop
      vertex 51.16025403784438 34 47.99999999999999
      vertex 54.28200123147644 34 47.505962597370896
      vertex 51.5630778703665 34 48.773817382593
    endloop
  endfacet
  facet normal 0 -1 0
    outer loop
      vertex 51.16025403784438 34 47.99999999999999
      vertex 53.7583302491977 34 46.49999999999999
      vertex 54.28200123147644 34 47.505962597370896
    endloop
  endfacet
  facet normal -0.923879532511285 0 0.3826834323650937
    outer loop
      vertex 54.28200123147644 22 47.505962597370896
      vertex 54.71600407021681 22 48.553738136766306
      vertex 54.71600407021681 34 48.553738136766306
    endloop
  endfacet
  facet normal -0.923879532511285 0 0.3826834323650937
    outer loop
      vertex 54.28200123147644 22 47.505962597370896
      vertex 54.71600407021681 34 48.553738136766306
      vertex 54.28200123147644 34 47.505962597370896
    endloop
  endfacet
  facet normal 0.923879532511288 0 -0.38268343236508645
    outer loop
      vertex 51.5630778703665 22 48.773817382593
      vertex 51.89692620785908 34 49.579798566743314
      vertex 51.89692620785908 22 49.579798566743314
    endloop
  endfacet
  facet normal 0.923879532511288 0 -0.38268343236508645
    outer loop
      vertex 51.5630778703665 22 48.773817382593
      vertex 51.5630778703665 34 48.773817382593
      vertex 51.89692620785908 34 49.579798566743314
    endloop
  endfacet
  facet normal 0 1 0
    outer loop
      vertex 51.5630778703665 22 48.773817382593
      vertex 51.89692620785908 22 49.579798566743314
      vertex 54.71600407021681 22 48.553738136766306
    endloop
  endfacet
  facet normal 0 1 0
    outer loop
      vertex 51.5630778703665 22 48.773817382593
      vertex 54.71600407021681 22 48.553738136766306
      vertex 54.28200123147644 22 47.505962597370896
    endloop
  endfacet
  facet normal 0 -1 0
    outer loop
      vertex 51.5630778703665 34 48.773817382593
      vertex 54.71600407021681 34 48.553738136766306
      vertex 51.89692620785908 34 49.579798566743314
    endloop
  endfacet
  facet normal 0 -1 0
    outer loop
      vertex 51.5630778703665 34 48.773817382593
      vertex 54.28200123147644 34 47.505962597370896
      vertex 54.71600407021681 34 48.553738136766306
    endloop
  endfacet
  facet normal -0.9537169507482284 0 0.30070579950426823
    outer loop
      vertex 54.71600407021681 22 48.553738136766306
      vertex 55.057035741757886 22 49.635352413667235
      vertex 55.057035741757886 34 49.635352413667235
    endloop
  endfacet
  facet normal -0.9537169507482284 0 0.30070579950426823
    outer loop
      vertex 54.71600407021681 22 48.553738136766306
      vertex 55.057035741757886 34 49.635352413667235
      vertex 54.71600407021681 34 48.553738136766306
    endloop
  endfacet
  facet normal 0.953716950748227 0 -0.3007057995042734
    outer loop
      vertex 51.89692620785908 22 49.579798566743314
      vertex 52.15925826289068 34 50.411809548974794
      vertex 52.15925826289068 22 50.411809548974794
    endloop
  endfacet
  facet normal 0.953716950748227 0 -0.3007057995042734
    outer loop
      vertex 51.89692620785908 22 49.579798566743314
      vertex 51.89692620785908 34 49.579798566743314
      vertex 52.15925826289068 34 50.411809548974794
    endloop
  endfacet
  facet normal 0 1 0
    outer loop
      vertex 51.89692620785908 22 49.579798566743314
      vertex 52.15925826289068 22 50.411809548974794
      vertex 55.057035741757886 22 49.635352413667235
    endloop
  endfacet
  facet normal 0 1 0
    outer loop
      vertex 51.89692620785908 22 49.579798566743314
      vertex 55.057035741757886 22 49.635352413667235
      vertex 54.71600407021681 22 48.553738136766306
    endloop
  endfacet
  facet normal 0 -1 0
    outer loop
      vertex 51.89692620785908 34 49.579798566743314
      vertex 55.057035741757886 34 49.635352413667235
      vertex 52.15925826289068 34 50.411809548974794
    endloop
  endfacet
  facet normal 0 -1 0
    outer loop
      vertex 51.89692620785908 34 49.579798566743314
      vertex 54.71600407021681 34 48.553738136766306
      vertex 55.057035741757886 34 49.635352413667235
    endloop
  endfacet
  facet normal -0.9762960071199333 0 0.2164396139381033
    outer loop
      vertex 55.057035741757886 22 49.635352413667235
      vertex 55.3025007891587 22 50.74257369032989
      vertex 55.3025007891587 34 50.74257369032989
    endloop
  endfacet
  facet normal -0.9762960071199333 0 0.2164396139381033
    outer loop
      vertex 55.057035741757886 22 49.635352413667235
      vertex 55.3025007891587 34 50.74257369032989
      vertex 55.057035741757886 34 49.635352413667235
    endloop
  endfacet
  facet normal 0.9762960071199316 0 -0.2164396139381108
    outer loop
      vertex 52.15925826289068 22 50.411809548974794
      vertex 52.34807753012208 34 51.263518223330685
      vertex 52.34807753012208 22 51.263518223330685
    endloop
  endfacet
  facet normal 0.9762960071199316 0 -0.2164396139381108
    outer loop
      vertex 52.15925826289068 22 50.411809548974794
      vertex 52.15925826289068 34 50.411809548974794
      vertex 52.34807753012208 34 51.263518223330685
    endloop
  endfacet
  facet normal 0 1 0
    outer loop
      vertex 52.15925826289068 22 50.411809548974794
      vertex 52.34807753012208 22 51.263518223330685
      vertex 55.3025007891587 22 50.74257369032989
    endloop
  endfacet
  facet normal 0 1 0
    outer loop
      vertex 52.15925826289068 22 50.411809548974794
      vertex 55.3025007891587 22 50.74257369032989
      vertex 55.057035741757886 22 49.635352413667235
    endloop
  endfacet
  facet normal 0 -1 0
    outer loop
      vertex 52.15925826289068 34 50.411809548974794
      vertex 55.3025007891587 34 50.74257369032989
      vertex 52.34807753012208 34 51.263518223330685
    endloop
  endfacet
  facet normal 0 -1 0
    outer loop
      vertex 52.15925826289068 34 50.411809548974794
      vertex 55.057035741757886 34 49.635352413667235
      vertex 55.3025007891587 34 50.74257369032989
    endloop
  endfacet
  facet normal -0.9914448613738099 0 0.13052619222005563
    outer loop
      vertex 55.3025007891587 22 50.74257369032989
      vertex 55.45053107519269 22 51.86697534428044
      vertex 55.45053107519269 34 51.86697534428044
    endloop
  endfacet
  facet normal -0.9914448613738099 0 0.13052619222005563
    outer loop
      vertex 55.3025007891587 22 50.74257369032989
      vertex 55.45053107519269 34 51.86697534428044
      vertex 55.3025007891587 34 50.74257369032989
    endloop
  endfacet
  facet normal 0.9914448613738114 0 -0.13052619222004466
    outer loop
      vertex 52.34807753012208 22 51.263518223330685
      vertex 52.46194698091745 34 52.12844257252342
      vertex 52.46194698091745 22 52.12844257252342
    endloop
  endfacet
  facet normal 0.9914448613738114 0 -0.13052619222004466
    outer loop
      vertex 52.34807753012208 22 51.263518223330685
      vertex 52.34807753012208 34 51.263518223330685
      vertex 52.46194698091745 34 52.12844257252342
    endloop
  endfacet
  facet normal 0 1 0
    outer loop
      vertex 52.34807753012208 22 51.263518223330685
      vertex 52.46194698091745 22 52.12844257252342
      vertex 55.45053107519269 22 51.86697534428044
    endloop
  endfacet
  facet normal 0 1 0
    outer loop
      vertex 52.34807753012208 22 51.263518223330685
      vertex 55.45053107519269 22 51.86697534428044
      vertex 55.3025007891587 22 50.74257369032989
    endloop
  endfacet
  facet normal 0 -1 0
    outer loop
      vertex 52.34807753012208 34 51.263518223330685
      vertex 55.45053107519269 34 51.86697534428044
      vertex 52.46194698091745 34 52.12844257252342
    endloop
  endfacet
  facet normal 0 -1 0
    outer loop
      vertex 52.34807753012208 34 51.263518223330685
      vertex 55.3025007891587 34 50.74257369032989
      vertex 55.45053107519269 34 51.86697534428044
    endloop
  endfacet
  facet normal -0.9990482215818578 0 0.04361938736533515
    outer loop
      vertex 55.45053107519269 22 51.86697534428044
      vertex 55.5 22 53
      vertex 55.5 34 53
    endloop
  endfacet
  facet normal -0.9990482215818578 0 0.04361938736533515
    outer loop
      vertex 55.45053107519269 22 51.86697534428044
      vertex 55.5 34 53
      vertex 55.45053107519269 34 51.86697534428044
    endloop
  endfacet
  facet normal 0.9990482215818575 0 -0.0436193873653384
    outer loop
      vertex 52.46194698091745 22 52.12844257252342
      vertex 52.5 34 53
      vertex 52.5 22 53
    endloop
  endfacet
  facet normal 0.9990482215818575 0 -0.0436193873653384
    outer loop
      vertex 52.46194698091745 22 52.12844257252342
      vertex 52.46194698091745 34 52.12844257252342
      vertex 52.5 34 53
    endloop
  endfacet
  facet normal 0 1 0
    outer loop
      vertex 52.46194698091745 22 52.12844257252342
      vertex 52.5 22 53
      vertex 55.5 22 53
    endloop
  endfacet
  facet normal 0 1 0
    outer loop
      vertex 52.46194698091745 22 52.12844257252342
      vertex 55.5 22 53
      vertex 55.45053107519269 22 51.86697534428044
    endloop
  endfacet
  facet normal 0 -1 0
    outer loop
      vertex 52.46194698091745 34 52.12844257252342
      vertex 55.5 34 53
      vertex 52.5 34 53
    endloop
  endfacet
  facet normal 0 -1 0
    outer loop
      vertex 52.46194698091745 34 52.12844257252342
      vertex 55.45053107519269 34 51.86697534428044
      vertex 55.5 34 53
    endloop
  endfacet
  facet normal -0.9990482215818578 0 -0.043619387365334876
    outer loop
      vertex 55.5 22 53
      vertex 55.45053107519269 22 54.13302465571957
      vertex 55.45053107519269 34 54.13302465571957
    endloop
  endfacet
  facet normal -0.9990482215818578 0 -0.043619387365334876
    outer loop
      vertex 55.5 22 53
      vertex 55.45053107519269 34 54.13302465571957
      vertex 55.5 34 53
    endloop
  endfacet
  facet normal 0.9990482215818579 0 0.04361938736533806
    outer loop
      vertex 52.5 22 53
      vertex 52.46194698091745 34 53.87155742747659
      vertex 52.46194698091745 22 53.87155742747659
    endloop
  endfacet
  facet normal 0.9990482215818579 0 0.04361938736533806
    outer loop
      vertex 52.5 22 53
      vertex 52.5 34 53
      vertex 52.46194698091745 34 53.87155742747659
    endloop
  endfacet
  facet normal 0 1 0
    outer loop
      vertex 52.5 22 53
      vertex 52.46194698091745 22 53.87155742747659
      vertex 55.45053107519269 22 54.13302465571957
    endloop
  endfacet
  facet normal 0 1 0
    outer loop
      vertex 52.5 22 53
      vertex 55.45053107519269 22 54.13302465571957
      vertex 55.5 22 53
    endloop
  endfacet
  facet normal 0 -1 0
    outer loop
      vertex 52.5 34 53
      vertex 55.45053107519269 34 54.13302465571957
      vertex 52.46194698091745 34 53.87155742747659
    endloop
  endfacet
  facet normal 0 -1 0
    outer loop
      vertex 52.5 34 53
      vertex 55.5 34 53
      vertex 55.45053107519269 34 54.13302465571957
    endloop
  endfacet
  facet normal -0.9914448613738103 0 -0.1305261922200527
    outer loop
      vertex 55.45053107519269 22 54.13302465571957
      vertex 55.30250078915871 22 55.25742630967009
      vertex 55.30250078915871 34 55.25742630967009
    endloop
  endfacet
  facet normal -0.9914448613738103 0 -0.1305261922200527
    outer loop
      vertex 55.45053107519269 22 54.13302465571957
      vertex 55.30250078915871 34 55.25742630967009
      vertex 55.45053107519269 34 54.13302465571957
    endloop
  endfacet
  facet normal 0.991444861373811 0 0.13052619222004783
    outer loop
      vertex 52.46194698091745 22 53.87155742747659
      vertex 52.34807753012208 34 54.7364817766693
      vertex 52.34807753012208 22 54.7364817766693
    endloop
  endfacet
  facet normal 0.991444861373811 0 0.13052619222004783
    outer loop
      vertex 52.46194698091745 22 53.87155742747659
      vertex 52.46194698091745 34 53.87155742747659
      vertex 52.34807753012208 34 54.7364817766693
    endloop
  endfacet
  facet normal 0 1 0
    outer loop
      vertex 52.46194698091745 22 53.87155742747659
      vertex 52.34807753012208 22 54.7364817766693
      vertex 55.30250078915871 22 55.25742630967009
    endloop
  endfacet
  facet normal 0 1 0
    outer loop
      vertex 52.46194698091745 22 53.87155742747659
      vertex 55.30250078915871 22 55.25742630967009
      vertex 55.45053107519269 22 54.13302465571957
    endloop
  endfacet
  facet normal 0 -1 0
    outer loop
      vertex 52.46194698091745 34 53.87155742747659
      vertex 55.30250078915871 34 55.25742630967009
      vertex 52.34807753012208 34 54.7364817766693
    endloop
  endfacet
  facet normal 0 -1 0
    outer loop
      vertex 52.46194698091745 34 53.87155742747659
      vertex 55.45053107519269 34 54.13302465571957
      vertex 55.30250078915871 34 55.25742630967009
    endloop
  endfacet
  facet normal -0.9762960071199328 0 -0.2164396139381053
    outer loop
      vertex 55.30250078915871 22 55.25742630967009
      vertex 55.057035741757886 22 56.364647586332765
      vertex 55.057035741757886 34 56.364647586332765
    endloop
  endfacet
  facet normal -0.9762960071199328 0 -0.2164396139381053
    outer loop
      vertex 55.30250078915871 22 55.25742630967009
      vertex 55.057035741757886 34 56.364647586332765
      vertex 55.30250078915871 34 55.25742630967009
    endloop
  endfacet
  facet normal 0.9762960071199341 0 0.2164396139380996
    outer loop
      vertex 52.34807753012208 22 54.7364817766693
      vertex 52.15925826289069 34 55.588190451025206
      vertex 52.15925826289069 22 55.588190451025206
    endloop
  endfacet
  facet normal 0.9762960071199341 0 0.2164396139380996
    outer loop
      vertex 52.34807753012208 22 54.7364817766693
      vertex 52.34807753012208 34 54.7364817766693
      vertex 52.15925826289069 34 55.588190451025206
    endloop
  endfacet
  facet normal 0 1 0
    outer loop
      vertex 52.34807753012208 22 54.7364817766693
      vertex 52.15925826289069 22 55.588190451025206
      vertex 55.057035741757886 22 56.364647586332765
    endloop
  endfacet
  facet normal 0 1 0
    outer loop
      vertex 52.34807753012208 22 54.7364817766693
      vertex 55.057035741757886 22 56.364647586332765
      vertex 55.30250078915871 22 55.25742630967009
    endloop
  endfacet
  facet normal 0 -1 0
    outer loop
      vertex 52.34807753012208 34 54.7364817766693
      vertex 55.057035741757886 34 56.364647586332765
      vertex 52.15925826289069 34 55.588190451025206
    endloop
  endfacet
  facet normal 0 -1 0
    outer loop
      vertex 52.34807753012208 34 54.7364817766693
      vertex 55.30250078915871 34 55.25742630967009
      vertex 55.057035741757886 34 56.364647586332765
    endloop
  endfacet
  facet normal -0.9537169507482284 0 -0.30070579950426823
    outer loop
      vertex 55.057035741757886 22 56.364647586332765
      vertex 54.71600407021681 22 57.446261863233694
      vertex 54.71600407021681 34 57.446261863233694
    endloop
  endfacet
  facet normal -0.9537169507482284 0 -0.30070579950426823
    outer loop
      vertex 55.057035741757886 22 56.364647586332765
      vertex 54.71600407021681 34 57.446261863233694
      vertex 55.057035741757886 34 56.364647586332765
    endloop
  endfacet
  facet normal 0.9537169507482246 0 0.3007057995042808
    outer loop
      vertex 52.15925826289069 22 55.588190451025206
      vertex 51.89692620785908 34 56.420201433256686
      vertex 51.89692620785908 22 56.420201433256686
    endloop
  endfacet
  facet normal 0.9537169507482246 0 0.3007057995042808
    outer loop
      vertex 52.15925826289069 22 55.588190451025206
      vertex 52.15925826289069 34 55.588190451025206
      vertex 51.89692620785908 34 56.420201433256686
    endloop
  endfacet
  facet normal 0 1 0
    outer loop
      vertex 52.15925826289069 22 55.588190451025206
      vertex 51.89692620785908 22 56.420201433256686
      vertex 54.71600407021681 22 57.446261863233694
    endloop
  endfacet
  facet normal 0 1 0
    outer loop
      vertex 52.15925826289069 22 55.588190451025206
      vertex 54.71600407021681 22 57.446261863233694
      vertex 55.057035741757886 22 56.364647586332765
    endloop
  endfacet
  facet normal 0 -1 0
    outer loop
      vertex 52.15925826289069 34 55.588190451025206
      vertex 54.71600407021681 34 57.446261863233694
      vertex 51.89692620785908 34 56.420201433256686
    endloop
  endfacet
  facet normal 0 -1 0
    outer loop
      vertex 52.15925826289069 34 55.588190451025206
      vertex 55.057035741757886 34 56.364647586332765
      vertex 54.71600407021681 34 57.446261863233694
    endloop
  endfacet
  facet normal -0.9238795325112863 0 -0.38268343236509056
    outer loop
      vertex 54.71600407021681 22 57.446261863233694
      vertex 54.28200123147645 22 58.4940374026291
      vertex 54.28200123147645 34 58.4940374026291
    endloop
  endfacet
  facet normal -0.9238795325112863 0 -0.38268343236509056
    outer loop
      vertex 54.71600407021681 22 57.446261863233694
      vertex 54.28200123147645 34 58.4940374026291
      vertex 54.71600407021681 34 57.446261863233694
    endloop
  endfacet
  facet normal 0.923879532511288 0 0.38268343236508645
    outer loop
      vertex 51.89692620785908 22 56.420201433256686
      vertex 51.5630778703665 34 57.226182617407
      vertex 51.5630778703665 22 57.226182617407
    endloop
  endfacet
  facet normal 0.923879532511288 0 0.38268343236508645
    outer loop
      vertex 51.89692620785908 22 56.420201433256686
      vertex 51.89692620785908 34 56.420201433256686
      vertex 51.5630778703665 34 57.226182617407
    endloop
  endfacet
  facet normal 0 1 0
    outer loop
      vertex 51.89692620785908 22 56.420201433256686
      vertex 51.5630778703665 22 57.226182617407
      vertex 54.28200123147645 22 58.4940374026291
    endloop
  endfacet
  facet normal 0 1 0
    outer loop
      vertex 51.89692620785908 22 56.420201433256686
      vertex 54.28200123147645 22 58.4940374026291
      vertex 54.71600407021681 22 57.446261863233694
    endloop
  endfacet
  facet normal 0 -1 0
    outer loop
      vertex 51.89692620785908 34 56.420201433256686
      vertex 54.28200123147645 34 58.4940374026291
      vertex 51.5630778703665 34 57.226182617407
    endloop
  endfacet
  facet normal 0 -1 0
    outer loop
      vertex 51.89692620785908 34 56.420201433256686
      vertex 54.71600407021681 34 57.446261863233694
      vertex 54.28200123147645 34 58.4940374026291
    endloop
  endfacet
  facet normal -0.8870108331782205 0 -0.46174861323503624
    outer loop
      vertex 54.28200123147645 22 58.4940374026291
      vertex 53.758330249197705 22 59.49999999999999
      vertex 53.758330249197705 34 59.49999999999999
    endloop
  endfacet
  facet normal -0.8870108331782205 0 -0.46174861323503624
    outer loop
      vertex 54.28200123147645 22 58.4940374026291
      vertex 53.758330249197705 34 59.49999999999999
      vertex 54.28200123147645 34 58.4940374026291
    endloop
  endfacet
  facet normal 0.8870108331782206 0 0.46174861323503574
    outer loop
      vertex 51.5630778703665 22 57.226182617407
      vertex 51.16025403784439 34 57.99999999999999
      vertex 51.16025403784439 22 57.99999999999999
    endloop
  endfacet
  facet normal 0.8870108331782206 0 0.46174861323503574
    outer loop
      vertex 51.5630778703665 22 57.226182617407
      vertex 51.5630778703665 34 57.226182617407
      vertex 51.16025403784439 34 57.99999999999999
    endloop
  endfacet
  facet normal 0 1 0
    outer loop
      vertex 51.5630778703665 22 57.226182617407
      vertex 51.16025403784439 22 57.99999999999999
      vertex 53.758330249197705 22 59.49999999999999
    endloop
  endfacet
  facet normal 0 1 0
    outer loop
      vertex 51.5630778703665 22 57.226182617407
      vertex 53.758330249197705 22 59.49999999999999
      vertex 54.28200123147645 22 58.4940374026291
    endloop
  endfacet
  facet normal 0 -1 0
    outer loop
      vertex 51.5630778703665 34 57.226182617407
      vertex 53.758330249197705 34 59.49999999999999
      vertex 51.16025403784439 34 57.99999999999999
    endloop
  endfacet
  facet normal 0 -1 0
    outer loop
      vertex 51.5630778703665 34 57.226182617407
      vertex 54.28200123147645 34 58.4940374026291
      vertex 53.758330249197705 34 59.49999999999999
    endloop
  endfacet
  facet normal -0.8433914458128845 0 -0.5372996083468259
    outer loop
      vertex 53.758330249197705 22 59.49999999999999
      vertex 53.14897657575689 22 60.456493672563596
      vertex 53.14897657575689 34 60.456493672563596
    endloop
  endfacet
  facet normal -0.8433914458128845 0 -0.5372996083468259
    outer loop
      vertex 53.758330249197705 22 59.49999999999999
      vertex 53.14897657575689 34 60.456493672563596
      vertex 53.758330249197705 34 59.49999999999999
    endloop
  endfacet
  facet normal 0.8433914458128868 0 0.5372996083468221
    outer loop
      vertex 51.16025403784439 22 57.99999999999999
      vertex 50.69152044288992 34 58.73576436351046
      vertex 50.69152044288992 22 58.73576436351046
    endloop
  endfacet
  facet normal 0.8433914458128868 0 0.5372996083468221
    outer loop
      vertex 51.16025403784439 22 57.99999999999999
      vertex 51.16025403784439 34 57.99999999999999
      vertex 50.69152044288992 34 58.73576436351046
    endloop
  endfacet
  facet normal 0 1 0
    outer loop
      vertex 51.16025403784439 22 57.99999999999999
      vertex 50.69152044288992 22 58.73576436351046
      vertex 53.14897657575689 22 60.456493672563596
    endloop
  endfacet
  facet normal 0 1 0
    outer loop
      vertex 51.16025403784439 22 57.99999999999999
      vertex 53.14897657575689 22 60.456493672563596
      vertex 53.758330249197705 22 59.49999999999999
    endloop
  endfacet
  facet normal 0 -1 0
    outer loop
      vertex 51.16025403784439 34 57.99999999999999
      vertex 53.14897657575689 34 60.456493672563596
      vertex 50.69152044288992 34 58.73576436351046
    endloop
  endfacet
  facet normal 0 -1 0
    outer loop
      vertex 51.16025403784439 34 57.99999999999999
      vertex 53.758330249197705 34 59.49999999999999
      vertex 53.14897657575689 34 60.456493672563596
    endloop
  endfacet
  facet normal -0.793353340291239 0 -0.6087614290087155
    outer loop
      vertex 53.14897657575689 22 60.456493672563596
      vertex 52.45857776054672 22 61.35623892592501
      vertex 52.45857776054672 34 61.35623892592501
    endloop
  endfacet
  facet normal -0.793353340291239 0 -0.6087614290087155
    outer loop
      vertex 53.14897657575689 22 60.456493672563596
      vertex 52.45857776054672 34 61.35623892592501
      vertex 53.14897657575689 34 60.456493672563596
    endloop
  endfacet
  facet normal 0.7933533402912336 0 0.6087614290087224
    outer loop
      vertex 50.69152044288992 22 58.73576436351046
      vertex 50.16044443118978 34 59.42787609686539
      vertex 50.16044443118978 22 59.42787609686539
    endloop
  endfacet
  facet normal 0.7933533402912336 0 0.6087614290087224
    outer loop
      vertex 50.69152044288992 22 58.73576436351046
      vertex 50.69152044288992 34 58.73576436351046
      vertex 50.16044443118978 34 59.42787609686539
    endloop
  endfacet
  facet normal 0 1 0
    outer loop
      vertex 50.69152044288992 22 58.73576436351046
      vertex 50.16044443118978 22 59.42787609686539
      vertex 52.45857776054672 22 61.35623892592501
    endloop
  endfacet
  facet normal 0 1 0
    outer loop
      vertex 50.69152044288992 22 58.73576436351046
      vertex 52.45857776054672 22 61.35623892592501
      vertex 53.14897657575689 22 60.456493672563596
    endloop
  endfacet
  facet normal 0 -1 0
    outer loop
      vertex 50.69152044288992 34 58.73576436351046
      vertex 52.45857776054672 34 61.35623892592501
      vertex 50.16044443118978 34 59.42787609686539
    endloop
  endfacet
  facet normal 0 -1 0
    outer loop
      vertex 50.69152044288992 34 58.73576436351046
      vertex 53.14897657575689 34 60.456493672563596
      vertex 52.45857776054672 34 61.35623892592501
    endloop
  endfacet
  facet normal -0.6427876096865384 0 -0.7660444431189787
    outer loop
      vertex 34.83955556881022 22 59.4278760968654
      vertex 32.54142223945328 22 61.35623892592501
      vertex 32.54142223945328 34 61.35623892592501
    endloop
  endfacet
  facet normal -0.6427876096865384 0 -0.7660444431189787
    outer loop
      vertex 34.83955556881022 22 59.4278760968654
      vertex 32.54142223945328 34 61.35623892592501
      vertex 34.83955556881022 34 59.4278760968654
    endloop
  endfacet
  facet normal 0.6427876096865399 0 -0.7660444431189776
    outer loop
      vertex 50.16044443118978 22 59.42787609686539
      vertex 52.45857776054672 34 61.35623892592501
      vertex 52.45857776054672 22 61.35623892592501
    endloop
  endfacet
  facet normal 0.6427876096865399 0 -0.7660444431189776
    outer loop
      vertex 50.16044443118978 22 59.42787609686539
      vertex 50.16044443118978 34 59.42787609686539
      vertex 52.45857776054672 34 61.35623892592501
    endloop
  endfacet
endsolid rpi5_mic_holder
